<?xml version="1.0" encoding="UTF-8"?>
<svg width="28px" height="29px" viewBox="0 0 28 29" version="1.1" xmlns="http://www.w3.org/2000/svg" xmlns:xlink="http://www.w3.org/1999/xlink">
    <!-- Generator: Sketch 43.1 (39012) - http://www.bohemiancoding.com/sketch -->
    <title>Group 4 Copy 3</title>
    <desc>Created with Sketch.</desc>
    <defs></defs>
    <g id="Page-1" stroke="none" strokeWidth="1" fill="none" fillRule="evenodd">
        <g id="Artboard-Copy-7" transform="translate(-1024.000000, -5335.000000)" fillRule="nonzero">
            <g id="Group-55" transform="translate(-460.000000, 29.000000)">
                <g id="Group-4-Copy-3" transform="translate(1484.000000, 5306.298246)">
                    <polygon id="Fill-8" fill="#333333" points="8.18157336 0 0 8.1933285 0 19.7808178 8.18157336 27.97444 19.7524378 27.97444 27.9343045 19.7808178 27.9343045 8.1933285 19.7524378 0"></polygon>
                    <g id="linkedin-logo" transform="translate(8.000000, 6.701754)" fill="#FFFFFF">
                        <path d="M12.4704442,7.32201563 L12.4704442,11.9324185 L9.79762425,11.9324185 L9.79762425,7.63079262 C9.79762425,6.55018914 9.41102966,5.81271952 8.44355743,5.81271952 C7.70501507,5.81271952 7.26550799,6.30972 7.07215272,6.79048432 C7.00164139,6.96235568 6.98349168,7.20157811 6.98349168,7.44216322 L6.98349168,11.9324185 L4.30977291,11.9324185 C4.30977291,11.9324185 4.34578239,4.6468762 4.30977291,3.89203969 L6.98323074,3.89203969 L6.98323074,5.03173119 C6.97780902,5.04025518 6.97076369,5.04944601 6.9656609,5.05770905 L6.98323074,5.05770905 L6.98323074,5.03173119 C7.33842575,4.48465956 7.97276676,3.70314935 9.39261902,3.70314935 C11.1517201,3.70312036 12.4704442,4.85232162 12.4704442,7.32201563 Z M1.51294925,0.0161781745 C0.598273532,0.0161781745 0,0.616133309 0,1.40509475 C0,2.17686326 0.580964625,2.79502609 1.47746164,2.79502609 L1.49532142,2.79502609 C2.42771194,2.79502609 3.00757483,2.17697923 3.00757483,1.40509475 C2.99000498,0.616133309 2.42771194,0.0161781745 1.51294925,0.0161781745 Z M0.158795451,11.9324185 L2.83149946,11.9324185 L2.83149946,3.89203969 L0.158795451,3.89203969 L0.158795451,11.9324185 Z" id="LinkedIn"></path>
                    </g>
                </g>
            </g>
        </g>
    </g>
</svg>