<?xml version="1.0" encoding="utf-8"?>
<!-- Generator: Adobe Illustrator 21.0.0, SVG Export Plug-In . SVG Version: 6.00 Build 0)  -->
<svg version="1.1" id="Calque_1" xmlns="http://www.w3.org/2000/svg" xmlns:xlink="http://www.w3.org/1999/xlink" x="0px" y="0px"
	 viewBox="0 0 550 550" style="enable-background:new 0 0 550 550;" xml:space="preserve">
<style type="text/css">
	.st0{fill:#E6DF56;}
	.st1{fill:#1B0B37;}
	.st2{fill:#58AD73;}
	.st3{fill:#DA4441;}
	.st4{fill:#E2DB54;}
	.st5{fill:#41A07F;}
	.st6{fill:#DED653;}
	.st7{fill:#DBD453;}
	.st8{fill:#1C0C37;}
	.st9{fill:#1C0D38;}
	.st10{fill:#1D0D38;}
	.st11{fill:#1D1139;}
	.st12{fill:#1D1239;}
</style>
<path class="st0" d="M507.5,262.7c-0.4,0.3-0.4,0.8-0.4,1.2c-0.1,6.1-1.4,12-2.5,18c-3,15.4-7.4,30.5-12.6,45.3
	c-3.6,10.2-7.7,20.1-12.2,29.9c-7.2,15.6-15.4,30.6-24.7,45.1c-8.7,13.5-18.3,26.5-28.7,38.8c-9.3,11-19.2,21.4-29.6,31.2
	c-13.7,12.8-28.3,24.5-43.8,35.1c-11,7.5-22.3,14.4-33.9,20.9c-13.9,7.7-28.3,14.3-42.9,20.5c-1.3,0.6-2.5,0.6-3.9,0
	c-7.5-3.2-15-6.5-22.5-10c-10.6-5-21-10.6-31.2-16.5c-16.7-9.8-32.6-20.8-47.7-33c-6.1-4.9-11.9-10.1-17.7-15.3
	c-6.7-6.2-13.2-12.6-19.4-19.2c-8-8.5-15.6-17.4-22.7-26.7c-5.7-7.5-11.2-15.1-16.4-23c-5.7-8.8-11.1-17.8-16.1-27
	c-6.7-12.4-12.7-25.2-18-38.3c-6.4-15.9-11.5-32.1-15.4-48.8c-1.9-8.2-3.5-16.4-4.3-24.8c-0.3-2.6-0.6-5.3-0.9-7.9
	c0-0.3-0.1-0.6-0.4-0.8c0-85.6,0-171.2,0-256.8c155.9,0,311.9,0,468,0C507.5,87.9,507.5,175.3,507.5,262.7z M274.1,4.5
	c-75.9,0-151.7,0-227.6,0c-3.4,0-2.9-0.4-2.9,2.9c0,80.3,0,160.6,0,240.8c0,3.2,0,6.4,0.2,9.5c0.4,5.8,1.1,11.6,2.1,17.3
	c2.2,12.9,5.4,25.5,9.3,37.9c6.5,20.4,14.7,40.2,24.7,59.1c8.1,15.3,17.2,30,27.3,44.1c13.8,19.1,29.3,36.8,46.6,52.9
	c7.8,7.3,15.8,14.1,24.2,20.7c7.7,6.1,15.6,11.8,23.8,17.2c11.3,7.5,23,14.4,35.1,20.7c11.5,6,23.2,11.5,35.2,16.5
	c1.3,0.5,2.4,0.5,3.6,0c7.4-3.1,14.8-6.3,22-9.8c17.9-8.6,35.1-18.4,51.5-29.6c20.4-14,39.4-29.6,56.6-47.4
	c5-5.1,9.8-10.3,14.5-15.7c12.9-14.9,24.5-30.7,34.9-47.5c8.3-13.4,15.6-27.2,22.1-41.6c6.4-14.3,11.9-28.9,16.4-43.8
	c3.9-13,7-26.2,9-39.6c0.8-5.5,1.4-11.1,1.4-16.7c0-81.6,0-163.3,0-244.9c0-3.6,0.6-3.1-3.1-3.1C425.4,4.5,349.8,4.5,274.1,4.5z"/>
<path class="st1" d="M274.1,4.5c75.6,0,151.3,0,226.9,0c3.7,0,3.1-0.5,3.1,3.1c0,81.6,0,163.3,0,244.9c0,5.6-0.6,11.2-1.4,16.7
	c-1.9,13.4-5.1,26.6-9,39.6c-4.5,15-10,29.6-16.4,43.8c-6.5,14.3-13.8,28.2-22.1,41.6c-10.3,16.8-21.9,32.6-34.9,47.5
	c-4.7,5.4-9.5,10.6-14.5,15.7c-17.2,17.8-36.2,33.4-56.6,47.4c-16.4,11.2-33.6,21-51.5,29.6c-7.2,3.5-14.6,6.7-22,9.8
	c-1.3,0.5-2.4,0.5-3.6,0c-12-5-23.7-10.5-35.2-16.5c-12.1-6.3-23.7-13.2-35.1-20.7c-8.2-5.4-16.1-11.1-23.8-17.2
	c-8.3-6.6-16.4-13.5-24.2-20.7c-17.2-16.1-32.8-33.7-46.6-52.9c-10.1-14.1-19.2-28.8-27.3-44.1c-10-19-18.2-38.7-24.7-59.1
	c-3.9-12.4-7.1-25.1-9.3-37.9c-1-5.7-1.7-11.5-2.1-17.3c-0.2-3.2-0.2-6.4-0.2-9.5c0-80.3,0-160.6,0-240.8c0-3.3-0.5-2.9,2.9-2.9
	C122.4,4.5,198.3,4.5,274.1,4.5z M403.9,416.4c-0.5-0.1-0.9,0.2-1.1,0.6c-0.7,1.4-0.4,3.4,0.7,4.4c1.1,1,3.2,1.2,4.5,0.4
	c1.3-0.8,2-2.5,1.6-3.9c-0.6-1.9-1.9-3-3.6-2.8C405.1,415.3,404,415.2,403.9,416.4L403.9,416.4z M141.2,421L141.2,421
	c-0.1,0.5,0.2,0.8,0.6,1.1c1.6,0.8,3.9,0.1,4.8-1.4c1-1.7,0.4-4-1.3-5c-1.7-1-3.8-0.6-4.9,1C139.4,418.2,139.7,420.1,141.2,421z
	 M351.9,260.8c2.3,0.1,4.5-0.1,6.8-0.2c4.8-0.2,9.5-0.6,14.3-0.9c7.9-0.6,15.7-1.5,23.4-2.8c11.4-2,22.7-4.8,33.5-9.2
	c14.3-5.8,27.2-13.7,37.6-25.3c4.9-5.4,8.9-11.3,12.2-17.7c5-9.7,7.9-20.1,9.4-30.9c0.2-1.6,0.8-3.2,0.4-5c-0.9,0-1.7,0-2.6,0
	c-10,0-20.1,0-30.1,0c-1.4,0-2.7,0.1-4.1,0.1c-0.8,0-1.5-0.1-2.3-0.1c-52,0-104.1,0-156.1,0c-0.8,0-1.5,0-2.3,0
	c-2.6-4.2-4.9-8.6-7.3-12.9c-0.5-0.9-0.4-1.4,0.6-1.7c0.4-0.1,0.8-0.3,1.3-0.5c9-3.6,18-7.2,27.1-10.8c0.4-0.2,0.9-0.3,1.2-0.7
	c-0.3-0.7-1-0.8-1.6-1.1c-5.3-2.3-10.7-4.4-16.1-6.2c-7.8-2.6-15.5-5.3-23.7-6.3c-3.6-0.5-6.6,0.4-9.2,2.9c-2.9,2.8-5,6.3-6.3,10.1
	c-2.3,6.3-3.2,12.9-4.1,19.5c-0.3,2.5-0.2,5.1-0.9,7.6c-1,0-2,0-3,0c-50.6,0-101.2,0-151.8,0c-0.8,0-1.7,0-2.5,0.1
	c-0.4,0-0.8-0.1-1.1-0.1c-11.6,0-23.3,0-34.9,0c-0.4,0-0.9-0.1-1.4,0.3c0,2.3,0.5,4.7,0.9,7.1c1.5,9.5,4.2,18.6,8.4,27.3
	c4.6,9.4,10.8,17.7,18.6,24.8c6.4,5.9,13.6,10.7,21.3,14.7c10.1,5.2,20.8,8.8,31.8,11.5c11.1,2.6,22.3,4.2,33.6,5.2
	c2.8,0.2,5.6,0.5,8.4,0.6c5.1,0.3,10.1,0.8,15.2,0.7c2.1,1,3.5,2.9,5.2,4.4c4.4,3.9,8.6,7.9,13,11.8c5.5,5,11,9.9,16.5,14.9
	c4.3,3.9,8.5,7.8,12.8,11.7c5.5,5,11,9.9,16.5,14.9c4.3,3.9,8.5,7.8,12.7,11.7c0.7,0.7,1.2,0.7,1.9,0c3.6-3.4,7.3-6.7,10.9-10
	c4.3-3.9,8.6-7.9,12.9-11.8c5.6-5,11.2-10,16.7-15.1c4.2-3.8,8.3-7.6,12.4-11.3c5.6-5.1,11.2-10.2,16.9-15.2
	C347.2,264.7,349.3,262.4,351.9,260.8z M225.2,422.8c-1.1-1.2-2.2-2.2-3.1-3.3c-1-1.3-2.2-1.8-3.9-1.8c-21.5,0.1-43,0-64.5,0.1
	c-0.8,0-2.3-0.5-2.3,0.6c0,1.5,1.6,0.7,2.4,0.7c21.1,0,42.1,0,63.2,0c0.5,0,1.1,0,1.6,0c0.8-0.1,1.4,0.3,1.9,0.9
	c1.1,1.3,2.4,2.5,3.6,3.8c0.8,0.9,1.4,0.9,2.2,0c1.5-1.5,3.1-2.8,4.7-4.3c1.3,1.5,2.5,2.9,3.8,4.2c1,1.1,1.3,1.2,2.4,0.1
	c1.3-1.2,2.5-2.4,3.7-3.7c0.5-0.6,1-0.6,1.5,0c1.1,1.2,2.1,2.4,3.2,3.5c1.2,1.2,1.3,1.2,2.5,0c1.5-1.4,2.9-2.9,4.5-4.1
	c1.3,1.4,2.6,2.8,3.8,4.1c0.7,0.8,1.4,1.1,2.3,0.2c0.4-0.4,0.9-0.8,1.4-1.2c1.1-1,2.1-2.1,3-3c1.5,1.4,2.9,2.6,4.2,3.8
	c1.3,1.3,1.3,1.3,2.6,0c1.4-1.4,2.7-2.9,4.4-3.9c1.6,1.2,2.7,2.9,4.1,4.3c0.7,0.7,1.2,0.7,1.9,0c1.2-1.2,2.6-2.4,3.8-3.7
	c0.8-0.8,1.4-0.9,2,0c0.8,1.2,1.9,2.1,2.9,3.2c1.3,1.4,1.3,1.4,2.7,0c1.1-1.1,2.2-2.1,3.2-3.2c0.7-0.7,1.3-0.7,1.9,0
	c0.9,1,1.9,2,2.8,3c1.4,1.4,1.4,1.4,2.8,0.1c1.4-1.3,2.9-2.6,4.4-4c1.2,1.4,2.4,2.6,3.5,3.9c1.3,1.5,1.5,1.6,3,0.1
	c1.1-1,2.2-2.1,3.2-3.2c0.7-0.7,1.2-0.7,1.9,0c1.1,1.3,2.3,2.4,3.4,3.7c0.7,0.8,1.2,0.7,1.9,0c1.2-1.2,2.5-2.2,3.6-3.5
	c1.1-1.3,2.4-1.5,4-1.5c21.7,0,43.5,0,65.2,0c0.7,0,2,0.5,2.1-0.6c0.1-1.3-1.3-0.7-2-0.7c-22.3,0-44.5,0-66.8-0.1
	c-1.4,0-2.5,0.5-3.4,1.5c-1.2,1.3-2.4,2.4-3.7,3.7c-1.4-1.5-2.6-2.7-3.8-4c-1.3-1.5-1.3-1.5-2.8-0.1c-1,1-2,2-3.2,2.9
	c-1.3,0.9-1.3,1-2.4-0.2c-0.9-0.9-1.7-2-2.6-2.9c-1.2-1.2-1.2-1.2-2.4-0.1c-1.2,1.1-2.4,2.3-3.6,3.5c-0.7,0.7-1.1,0.8-1.8,0
	c-1-1.2-2.2-2.3-3.2-3.5c-0.8-0.9-1.5-0.9-2.3,0c-1,1.1-2.1,2.2-3.2,3.2c-1.1,1.1-1.4,1-2.4,0c-1-1-2.1-2-2.9-3.2
	c-0.7-1-1.3-0.8-2-0.1c-1.5,1.5-3.1,2.9-4.7,4.3c-1.6-1.1-2.6-2.8-3.9-4.1c-1.1-1.1-1.3-1.1-2.4,0c-1.2,1.1-2.4,2.3-3.5,3.5
	c-0.7,0.8-1.2,0.7-1.8-0.1c-0.6-0.8-1.3-1.5-1.9-2.2c-2.3-2.4-2.3-2.4-4.7,0c-3.1,3.1-3.1,3.1-6.3-0.2c-2.3-2.3-1.4-2.5-4.4-0.1
	c-1.2,1-2.2,2.2-3.4,3.4c-1.3-1.4-2.4-2.7-3.5-3.9c-1.4-1.6-1.5-1.6-3-0.2c-1,1-2,2.1-3.1,3c-1.1,1-1.4,0.9-2.5-0.2
	c-1-1.1-2-2.1-2.9-3.2c-0.7-0.8-1.2-0.7-1.9,0C228.4,419.8,226.8,421.3,225.2,422.8z M296.9,398.7c-0.3-1-0.5-1.5-0.6-2
	c-1.4-7.1-2.7-14.3-4.1-21.4c-0.1-0.4,0-1-0.4-1.2c-0.9-0.4-1.8-0.3-2.7-0.1c-1,0.2-0.5,1.1-0.5,1.8c-0.1,8.7-0.1,17.3-0.2,26
	c0,0.4,0,0.8,0,1.1c0.1,1,1.1,1.6,1.9,1.1c0.7-0.4,0.4-1.1,0.4-1.7c0-6.6,0-13.2,0-19.8c0-0.9,0-1.7,0-2.9c0.3,0.5,0.4,0.6,0.4,0.8
	c1.4,7.4,2.8,14.7,4.2,22.1c0.2,0.8,0.2,1.7,1.4,1.7c1.2,0.1,1.3-0.7,1.4-1.6c1.3-7.1,2.7-14.3,4.1-21.4c0.1-0.5,0.1-1,0.7-1.2
	c0,7.2,0,14.3,0,21.5c0,0.5,0,1.1,0,1.6c-0.1,1,0.5,1.1,1.3,1.1c1.4,0,1.1-1.1,1-1.8c-0.5-3.6-0.2-7.1-0.3-10.7
	c-0.1-5.3-0.1-10.6-0.2-16c0-0.5,0.2-1.1-0.3-1.5c-0.9-0.7-3,0-3.2,1.2c-0.4,2.2-0.8,4.3-1.2,6.5C299,387.3,297.8,392.7,296.9,398.7
	z M228.8,387.9c0,3.7,0,6.9,0,10.2c0,1.7,0,3.3,0,5c0,0.8,0.4,1,1.2,1c0.7,0,1.2-0.2,1.1-1c0-0.3,0-0.6,0-0.9c0-8.8,0-17.6,0-26.4
	c0-0.6,0.4-1.4-0.6-1.7c-1.1-0.3-1.7,0.1-1.7,1.3c0,2.9,0,5.8,0,8.7c0,0.7,0.2,1.4-0.6,1.8c-2.2,0.8-4.2,2-6.8,2.6
	c0-0.9,0-1.7,0-2.4c0-3.2,0-6.4,0-9.6c0-0.5,0-0.9,0-1.4c0-0.8-0.4-1-1.1-1c-0.7,0-1.2,0.1-1.2,0.9c0,0.5,0,0.9,0,1.4
	c0,8.5,0,17,0,25.5c0,0.5,0,0.9,0,1.4c0,0.7,0.3,0.9,1,0.9c0.6,0,1.3,0,1.3-0.9c0-0.5,0-1.1,0-1.6c0-3.1,0-6.2,0-9.3
	c0-0.7-0.1-1.4,0.8-1.7C224.2,389.7,226.3,388.9,228.8,387.9z M267.5,384.7c-0.8-0.4-1.6-0.2-2.4-0.2c-1.9,0-3.8-0.1-5.7,0
	c-1.2,0.1-1.6-0.4-1.5-1.6c0.1-3.4,0-6.8,0-10.3c0-1.7,0-1.7,1.8-1.7c2.7,0,5.5,0,8.2,0c0.5,0,1.1,0,1.6-0.1
	c0.8-0.2,0.7-0.9,0.7-1.5c0.1-0.6-0.4-0.7-0.9-0.7c-4.3,0-8.7,0-13,0c-0.8,0-1.1,0.3-1.1,1.1c0,0.5,0,0.9,0,1.4
	c0,10.2,0,20.4,0,30.5c0,0.5,0,0.9,0,1.4c-0.1,1,0.5,1.1,1.3,1.1c0.8,0,1.4-0.1,1.3-1.1c0-0.5,0-1.1,0-1.6c0-4.4,0-8.8,0-13.2
	c0-1.1,0.3-1.5,1.4-1.5c2,0.1,4,0,5.9,0C267,386.7,267,386.7,267.5,384.7z M276.5,383.8c1.3,6,2.6,12,3.8,18c0.1,0.5,0.2,1,0.4,1.5
	c0.3,1,1.1,0.7,1.7,0.7c0.8,0,0.7-0.6,0.7-1.2c-0.1-0.4-0.1-0.7-0.2-1.1c-1.4-6.6-2.9-13.2-4.3-19.8c-0.6-2.9-1.2-5.8-2.2-8.9
	c-0.8,1.5-0.9,2.9-1.2,4.2c-1.9,8.4-3.8,16.7-5.6,25.1c-0.1,0.5-0.4,1.1,0.1,1.5c0.5,0.4,1.2,0.3,1.7,0.1c0.6-0.3,0.6-1,0.7-1.6
	c0.8-3.6,1.5-7.3,2.3-10.9C275,389,275.3,386.4,276.5,383.8z M207.7,387.5c0,5,0,10,0,15c0,1.5,0.3,1.7,1.7,1.6c1.4-0.1,1-1.1,1-1.8
	c0-7.2,0-14.4,0-21.6c0-2.7,0-5.3,0-8c0-1.7,0-1.7,1.8-1.7c1.1,0,2.1,0,3.2,0c0.8,0,1.1-0.2,1.1-1c0-0.8-0.2-1.3-1.1-1.3
	c-1.1,0-2.3,0-3.4,0c-3.1,0-6.2,0-9.3,0c-0.9,0-1.2,0.3-1.2,1.2c0,1,0.5,1.1,1.3,1.1c1.1,0,2.1,0,3.2,0c1.7,0,1.8,0,1.8,1.8
	C207.7,377.6,207.7,382.6,207.7,387.5z M237.5,388.8c0,4.6,0,9.1,0,13.7c0,1.1,0.2,1.7,1.5,1.6c2.7-0.1,5.3,0,8,0c0.7,0,1.4,0,1.4-1
	c0-1.1-0.7-1.2-1.5-1.2c-1.8,0-3.6,0-5.5,0c-1.1,0-1.6-0.2-1.6-1.5c0.1-3.1,0-6.2,0-9.3c0-1.5,0-1.6,1.7-1.6c1.4,0,2.7,0,4.1,0
	c0.8,0,1.3-0.1,1.3-1.1c0-1-0.5-1.1-1.3-1.1c-1.5,0-3,0-4.6,0c-1,0-1.3-0.3-1.3-1.3c0-2.9,0.1-5.8,0-8.7c0-1.1,0.4-1.4,1.5-1.4
	c2,0.1,4,0,5.9,0c0.9,0,1.4-0.7,1.1-1.5c-0.3-0.7-0.9-0.5-1.4-0.5c-2.6,0-5.2,0-7.7,0c-1.6,0-1.7,0-1.7,1.6
	C237.5,380,237.5,384.4,237.5,388.8z M339.2,387.1c-0.6-0.9-0.8-1.6-1.1-2.3c-1-3-2-6-3-9.1c-0.7-2-0.7-2-2.9-1.5
	c-0.1,0.6,0.2,1,0.3,1.5c1.3,3.7,2.5,7.5,3.9,11.1c1,2.5,1.4,4.9,1.3,7.5c-0.1,2.7,0,5.5,0,8.2c0,0.6-0.1,1.2,0.8,1.4
	c1.1,0.2,1.5-0.1,1.5-1.3c0-3.3,0-6.7,0-10c0-1.2,0.2-2.2,0.6-3.3c1.7-4.5,3.4-9.1,5-13.6c0.2-0.5,0.5-1.1,0.3-1.7
	c-1.9-0.4-2.2-0.4-2.8,1.6c-0.3,0.9-0.6,1.7-0.9,2.6C341.3,381.1,340.3,383.9,339.2,387.1z M321.7,388.9c0,4.6,0,9.1,0,13.7
	c0,1,0.3,1.5,1.4,1.5c2.4-0.1,4.9,0,7.3,0c0.7,0,1.4,0,1.4-1c0-1.2-0.7-1.2-1.5-1.2c-1.5,0-3,0-4.6,0c-1.7,0-1.7,0-1.7-1.8
	c0-7.9,0-15.8,0-23.7c0-0.5,0-1.1,0-1.6c0-0.5-0.3-0.8-0.8-0.9c-1.1-0.2-1.5,0.1-1.5,1.3C321.7,379.8,321.7,384.4,321.7,388.9z
	 M314.5,389.1c0-4.3,0-8.5,0-12.8c0-0.5,0-1.1,0-1.6c0-0.8-0.6-0.7-1.2-0.7c-0.5,0-1.1,0-1.1,0.8c0,0.5,0,0.9,0,1.4
	c0,8.6,0,17.2,0,25.7c0,0.5,0,0.9,0,1.4c0,0.7,0.4,0.8,1,0.9c1.3,0.1,1.3-0.7,1.3-1.6C314.4,398,314.5,393.5,314.5,389.1z
	 M273.7,429.7c-0.5,0-2.5,1.9-2.5,2.5c0,0.5,1.9,2.5,2.4,2.6c0.6,0.1,2.6-2,2.6-2.6C276.1,431.6,274.2,429.7,273.7,429.7z"/>
<path class="st2" d="M95.6,168.8c0.8,0,1.7-0.1,2.5-0.1c50.6,0,101.2,0,151.8,0c1,0,2,0,3,0c0.1,1.1,0.2,2.2-0.1,3.3
	c-13.3,0-26.5,0-39.7,0c-0.3,0.7-0.1,1.1,0.1,1.5c2.6,6.5,5.3,13.1,7.9,19.6c6.6,16.3,13.1,32.6,19.8,48.9c1.7,4.2,3.2,8.5,5.3,12.6
	c0.2,1.3,0.7,2.4,1.4,3.6c1.4,4.2,3.3,8.3,4.9,12.4c6.4,15.9,12.9,31.9,19.3,47.8c0.2,0.5,0.3,1.2,1,1.3c0.4,2.7,0.8,5.4,1.2,8.1
	c0.1,0,0.2,0,0.3,0c0.4-2.2,0.7-4.4,1.1-6.6c0.5-0.3,0.6-0.9,0.8-1.4c1.4-3.3,2.7-6.6,4-9.9c5.3-13.2,10.7-26.4,15.9-39.6
	c1.6-4.1,3.5-8,4.8-12.2c0.6-1.1,1.3-2.2,1.3-3.5c0.5-0.4,0.6-1,0.9-1.6c3-7.5,6-14.9,9-22.4c7.6-18.9,15.3-37.9,22.9-56.8
	c0.2-0.5,0.7-1.1,0.3-1.7c-0.8-0.3-1.6-0.2-2.5-0.2c-13.2,0-26.3,0-39.5,0c-0.2-1.2-1-2.1-1.3-3.2c0.8,0,1.5,0,2.3,0
	c52,0,104.1,0,156.1,0c0.8,0,1.5,0,2.3,0.1c-0.9,1.4-2.4,2.1-3.2,3.5c-0.8,0.2-1.4,0.9-2,1.5c-7.5,6.7-15,13.5-22.4,20.3
	c-6.5,5.9-13,11.8-19.5,17.7c-8.1,7.3-16.2,14.6-24.3,22c-7.1,6.5-14.3,12.9-21.3,19.4c-1.4,1.3-3.2,2.1-3.9,4
	c-1.8,0.8-3,2.1-4.1,3.6c-2.6,1.6-4.6,3.9-6.9,5.9c-5.7,5-11.3,10.1-16.9,15.2c-4.2,3.8-8.3,7.6-12.4,11.3c-5.6,5-11.2,10-16.7,15.1
	c-4.3,3.9-8.6,7.9-12.9,11.8c-3.6,3.3-7.3,6.6-10.9,10c-0.7,0.7-1.2,0.7-1.9,0c-4.2-3.9-8.5-7.8-12.7-11.7c-5.5-5-11-9.9-16.5-14.9
	c-4.3-3.9-8.5-7.8-12.8-11.7c-5.5-5-11-9.9-16.5-14.9c-4.3-3.9-8.6-7.9-13-11.8c-1.7-1.5-3.1-3.3-5.2-4.4c-1.1-1.5-2.4-2.9-4.1-3.6
	c-0.1-0.8-0.8-1.3-1.4-1.8c-2.1-1.9-4.2-3.7-6.3-5.6c-6.5-5.9-13-11.8-19.5-17.7c-6.6-6-13.1-11.9-19.7-17.9
	c-6.5-5.9-13-11.8-19.5-17.7c-7.6-6.9-15.1-13.8-22.7-20.6c-1.4-1.2-2.5-2.8-4.4-3.6c-0.1-0.8-0.7-1.3-1.3-1.7
	C96.7,170.1,96.1,169.6,95.6,168.8z M305,297.9c0.2-0.1,0.4-0.2,0.5-0.5c0.7-0.3,1.3-0.8,1.8-1.3c2-1.9,4-3.7,6-5.5
	c4.8-4.3,9.5-8.7,14.3-13c2.7-2.4,5.4-4.8,8.1-7.3c3.4-3.1,6.8-6.3,10.2-9.4c1.4-1.1,2.8-2.2,3.8-3.7c0.4-0.1,0.8-0.3,1.2-0.6
	c5-4.6,10.1-9.2,15.1-13.8c4.2-3.8,8.4-7.7,12.6-11.5c6.9-6.3,13.9-12.5,20.8-18.7c5.4-4.9,10.8-9.8,16.1-14.7
	c4.7-4.3,9.4-8.6,14.2-12.8c4.3-3.9,8.7-7.8,13-11.7c0.3-0.3,0.8-0.5,0.6-1c-0.2-0.3-0.4-0.3-0.6-0.3c-7.1,0-14.3,0-21.4,0
	c-0.9,0-1.4,0.4-1.9,1c-3.6,3.8-7.1,7.7-10.6,11.6c-5.3,5.9-10.8,11.7-16.2,17.6c-5.3,5.7-10.6,11.5-15.9,17.2
	c-5.3,5.8-10.7,11.6-16,17.4c-5,5.3-10,10.6-14.9,16c-1.2,1.4-2.9,2.5-3.5,4.4c-1.8,0.6-2.5,2.4-3.6,3.6c-0.4,0.3-0.8,0.5-1.1,0.9
	c-4.7,5.1-9.4,10.3-14.1,15.4c-4.8,5.2-9.7,10.3-14.4,15.5c-1.4,1.5-3,2.8-3.9,4.7c-0.2,0.2-0.3,0.3-0.5,0.5
	c-0.2,0.2-0.3,0.3-0.5,0.5c-0.2,0-0.4,0.2-0.4,0.4c-0.2,0-0.4,0.1-0.5,0.1c-0.4,0.4-0.8,0.8-0.8,1.4c-0.2,0.2-0.3,0.3-0.5,0.5
	c-0.1,0.1-0.3,0.3-0.4,0.4c-0.1,0.1-0.1,0.2-0.2,0.2c0.1-0.1,0.2-0.1,0.2-0.2c0.1-0.1,0.3-0.3,0.4-0.4c0.2-0.2,0.3-0.3,0.5-0.5
	c0.3-0.2,0.6-0.5,0.9-0.7c0.2-0.2,0.3-0.4,0.5-0.6c0.2-0.1,0.4-0.2,0.5-0.5C304.8,298.3,304.9,298.2,305,297.9z M253.7,297.5
	c0.1,0.1,0.2,0.4,0.4,0.2c0.2-0.2,0-0.3-0.2-0.4c-0.1-0.2-0.2-0.4-0.3-0.6c-0.2-0.8-0.6-1.5-1.1-2.2c-5.4-9.4-10.8-18.8-16.3-28.1
	c-1.4-2.3-2.5-4.8-4.3-6.9c-0.3-1.4-1.1-2.4-1.9-3.6c-0.3-0.5-0.5-1.1-0.8-1.6c-5.7-9.9-11.4-19.7-17.1-29.6
	c-9.8-17-19.7-34-29.5-51c-0.7-1.2-1.4-1.7-2.8-1.7c-6.1,0.1-12.2,0-18.2,0c-0.5,0-1.1-0.2-1.5,0.3c0,0.8,0.6,1.3,1.1,1.9
	c4.7,6.3,9.5,12.6,14.2,19c15.3,20.5,30.7,40.9,46,61.4c0.5,0.7,0.9,1.6,1.9,1.9c0.4,1.4,1.2,2.6,2.3,3.5c0.3,0.5,0.6,1.1,1,1.5
	c6.8,9,13.5,18.1,20.3,27.1c2.1,2.8,4.1,5.8,6.5,8.4C253.4,297.2,253.5,297.4,253.7,297.5z M244.4,298.6c-0.2-0.2-0.3-0.3-0.5-0.5
	c-0.1-0.3-0.1-0.6-0.4-0.6c-0.1,0-0.2,0.1-0.2,0.2c0,0.3,0.2,0.5,0.5,0.6c0.1,0.2,0.2,0.4,0.5,0.5c0.1,0.2,0.2,0.4,0.5,0.4
	c0.1,0.2,0.2,0.4,0.4,0.1c-0.1-0.1-0.2-0.2-0.3-0.2C244.8,298.9,244.6,298.7,244.4,298.6z M299,298.3c0.4-0.2,0.6-0.5,0.4-0.9
	c1.2,0,1.4-1,1.9-1.7c0.2-0.1,0.4-0.3,0.2-0.5c-0.2-0.2-0.3,0.1-0.5,0.2c-0.8,0.5-1.4,1.1-1.6,2C299.1,297.6,299,297.9,299,298.3
	c-0.2,0.1-0.3,0.1-0.1,0.2C298.9,298.5,299,298.4,299,298.3z M247.4,296.1c0.1,0.2,0.2,0.4,0.5,0.4c0.1,0.4,0.3,0.6,0.6,0.7
	c0,0,0.1-0.1,0.1-0.1c-0.1-0.4-0.3-0.6-0.7-0.7c0-0.3-0.2-0.4-0.4-0.5c0-0.4-0.2-0.7-0.5-0.8c-0.2-0.3-0.3-0.7-0.5-1
	c-7.9-10.5-15.8-21-23.7-31.5c-0.6-0.8-1-1.7-1.9-2.2c-0.6-1.4-1.5-2.6-2.7-3.6c0-0.7-0.5-1.1-0.9-1.6
	c-7.9-10.6-15.8-21.1-23.8-31.7c-12.5-16.6-24.9-33.3-37.3-49.9c-0.9-1.2-1.8-1.6-3.2-1.6c-5.9,0.1-11.8,0-17.8,0
	c-0.6,0-1.2-0.2-2,0.5c26.1,28.3,52,56.6,78.1,84.7c0.9,1.3,2.1,2.3,3.2,3.4c4.4,5.2,9.2,10.1,13.8,15.2c3.9,4.4,8,8.7,12.1,13
	c2.1,2.2,3.9,4.7,6.3,6.6C246.9,295.7,247,296,247.4,296.1z M261.1,302c0-0.4,0-0.8-0.5-0.9c0.1-1.4-0.8-2.6-1.3-3.8
	c-4.9-12.3-9.9-24.5-14.8-36.8c-0.3-0.7-0.4-1.5-1.1-1.9c0-1.3-0.5-2.5-1.3-3.5c0-1.1-0.6-2-1-3c-3.5-8.7-7.1-17.4-10.6-26.1
	c-7-17.4-14-34.7-21-52.1c-0.5-1.2-1.1-1.8-2.5-1.8c-6.6,0.1-13.2,0-19.8,0c-0.4,0-0.9-0.2-1.2,0.5c0.4,0.7,0.8,1.4,1.2,2.1
	c9.5,16.5,19.1,33,28.6,49.4c5.7,9.9,11.4,19.8,17.2,29.8c0.4,0.7,0.6,1.6,1.6,1.8c0,1.5,0.8,2.6,1.9,3.6c0,0.6,0.2,1,0.5,1.5
	c7.5,13,15,25.9,22.5,38.9c0.3,0.6,0.5,1.3,1.3,1.5C260.7,301.4,260.7,301.8,261.1,302c0.1,0.2,0,0.4,0.2,0.5c0,0,0.1-0.1,0.1-0.2
	C261.3,302.2,261.2,302.1,261.1,302z M249.7,298.8c0.1,0.2,0.2,0.2,0.2,0.1C249.9,298.8,249.8,298.8,249.7,298.8
	c0-0.1-0.1-0.3-0.1-0.4c-0.1-0.2-0.2-0.5-0.4-0.3c-0.2,0.2,0.1,0.3,0.2,0.5C249.5,298.6,249.6,298.7,249.7,298.8z M293.5,298.7
	c1.4-0.6,1.9-2,2.7-3.2c0.4-0.5,0.8-0.9,1.2-1.4c6.4-8.5,12.7-16.9,19.1-25.4c2.1-2.9,4.4-5.6,6.3-8.6c1-1.1,2.2-2,2.4-3.6
	c1.3-0.4,1.7-1.6,2.4-2.6c10.9-14.5,21.8-29,32.6-43.5c9.1-12.1,18.1-24.2,27.2-36.3c0.4-0.6,1.1-1.1,0.8-2.1c-0.7,0-1.4,0-2,0
	c-5.7,0-11.4,0.1-17.1-0.1c-1.8,0-2.7,0.6-3.6,2.1c-4.5,7.9-9.1,15.8-13.7,23.7c-10.9,18.8-21.8,37.7-32.7,56.5
	c-0.4,0.6-0.7,1.2-0.5,1.9c-1.3,0.8-1.9,2.1-2.3,3.4c-0.4,0.6-0.9,1.2-1.3,1.9c-5,8.7-10.1,17.3-15,26c-1.4,2.5-3.1,4.8-4.2,7.5
	C294.8,296.1,294,297.4,293.5,298.7c-0.1,0.2-0.5,0.3-0.1,0.6C293.4,299.2,293.5,298.9,293.5,298.7z M333.6,260.6
	c1.3-0.9,2.2-2.1,3.2-3.3c0.9-0.5,1.3-1.4,2-2.2c4.2-4.5,8.4-9,12.5-13.5c4.8-5.2,9.5-10.4,14.3-15.6c4.8-5.2,9.6-10.3,14.4-15.5
	c5.8-6.3,11.5-12.7,17.3-19c4.8-5.2,9.6-10.3,14.4-15.5c1-1.1,2.3-2.2,3.1-3.7c-0.8-0.4-1.6-0.3-2.3-0.3c-5.5,0-11.1,0.1-16.6-0.1
	c-2-0.1-3.2,0.6-4.3,2.2c-17.9,24-35.8,47.9-53.7,71.9c-2.7,3.6-5.5,7-7.9,10.8c-1.1,1-2,2.2-2.6,3.5c-0.2,0.1-0.4,0.3-0.5,0.4
	c-8.2,11-16.5,22-24.7,33c-0.2,0.3-0.4,0.6-0.1,1c0.7,0,1-0.6,1.4-1c2.9-3.1,5.7-6.3,8.6-9.4c5.8-6.2,11.6-12.4,17.3-18.7
	C330.8,264,332.5,262.5,333.6,260.6z M202.4,260.9c0.5,1,1.6,1.4,2.3,2.1c2.6,2.5,5.3,5,8,7.4c5.4,4.9,10.8,9.7,16.2,14.6
	c4.3,3.9,8.5,7.8,12.8,11.7c0.3,0.3,0.7,0.8,1.3,0.3c-0.1-0.2-0.2-0.5-0.3-0.6c-6.2-6.8-12.4-13.5-18.6-20.3
	c-3.3-3.6-6.5-7.2-9.9-10.7c-1.5-1.6-2.8-3.4-4.7-4.7c-0.7-1.6-2-2.5-3.2-3.7c-1.7-1.9-3.3-3.7-5-5.6c-4.7-5.2-9.4-10.3-14.1-15.4
	c-4.3-4.6-8.5-9.2-12.8-13.9c-5-5.5-10.1-10.9-15.1-16.4c-2.7-3-5.5-5.9-8.2-8.8c-4.2-4.6-8.4-9.2-12.6-13.8c-3-3.3-6.1-6.5-9.1-9.9
	c-0.8-1-1.6-1.4-2.9-1.4c-6.8,0.1-13.5,0-20.3,0c-0.5,0-1.1-0.3-1.4,0.5c0.1,0.2,0.3,0.3,0.4,0.5c5.1,4.6,10.2,9.2,15.3,13.9
	c4.5,4.1,9,8.3,13.6,12.5c7.1,6.5,14.3,12.9,21.4,19.4c4.3,3.9,8.5,7.8,12.8,11.7c5.4,4.9,10.8,9.7,16.2,14.6
	c4.3,3.9,8.5,7.8,12.8,11.7c0.3,0.3,0.7,0.5,1.2,0.6C199.6,258.8,201,259.9,202.4,260.9z M311.8,259.2c1.2-0.8,1.7-2.1,2.2-3.3
	c0.3-0.4,0.6-0.9,0.9-1.3c7.8-13.4,15.5-26.8,23.3-40.2c7.9-13.6,15.7-27.2,23.6-40.8c0.2-0.4,0.7-0.8,0.2-1.5c-7,0-14.1,0-21.1,0
	c-1.3,0-1.6,0.8-2,1.7c-3.8,9.4-7.7,18.8-11.5,28.3c-6.3,15.6-12.6,31.2-18.9,46.9c-0.8,2-1.9,4-2.3,6.2c-0.8,1-1.2,2.2-1.3,3.5
	c-0.6,0.5-0.8,1.3-1.1,2c-1.5,3.6-2.9,7.2-4.3,10.7c-3.1,7.7-6.3,15.4-9.4,23.2c-0.7,1.9-1.8,3.7-2.1,5.7c-0.3,0.2-0.5,0.6-0.2,0.7
	c0.4,0.1,0.5-0.3,0.6-0.7c0.4-0.6,0.9-1.2,1.2-1.9c7.1-12.3,14.3-24.6,21.4-37C311.4,260.6,311.9,260,311.8,259.2z M246.4,300.7
	c0-0.1-0.1-0.2-0.1-0.3c-0.1,0-0.2,0.1-0.1,0.1c0,0.1,0.1,0.2,0.1,0.3C246.3,300.8,246.4,300.7,246.4,300.7z M300.2,302.2
	c0.1,0,0.1,0.1,0.2,0.1c0,0,0-0.1,0.1-0.2c-0.1,0-0.1-0.1-0.2-0.1C300.3,302.1,300.3,302.2,300.2,302.2z M287.5,301.7l-0.1-0.1
	l0,0.1L287.5,301.7z M254.5,298.4l-0.1,0.2l0.1,0L254.5,298.4z"/>
<path class="st3" d="M275.3,321.3c-0.4,2.2-0.7,4.4-1.1,6.6c-0.1,0-0.2,0-0.3,0c-0.4-2.7-0.8-5.4-1.2-8.1c-0.1-1.1-0.2-2.3-0.4-3.4
	c-0.9-6.3-1.7-12.6-2.6-18.9c-0.7-4.9-1.3-9.9-2-14.8c-0.7-5.2-1.4-10.5-2.2-15.7c-0.5-3.7-1.1-7.3-1.6-11c-0.2-1.2,0-2.5-0.5-3.6
	c-0.7-5.1-1.3-10.2-2-15.3c-0.8-6-1.6-12-2.4-18c-1-7.3-2-14.5-3-21.8c-1.2-8.4-2.3-16.8-3.4-25.2c0.3-1.1,0.3-2.2,0.1-3.3
	c0.7-2.5,0.6-5.1,0.9-7.6c0.8-6.6,1.8-13.2,4.1-19.5c1.4-3.8,3.4-7.3,6.3-10.1c2.5-2.5,5.6-3.4,9.2-2.9c8.2,1.1,15.9,3.7,23.7,6.3
	c5.5,1.8,10.8,4,16.1,6.2c0.6,0.3,1.3,0.4,1.6,1.1c-0.3,0.4-0.7,0.5-1.2,0.7c-9,3.6-18,7.2-27.1,10.8c-0.4,0.2-0.8,0.4-1.3,0.5
	c-1,0.3-1.1,0.9-0.6,1.7c2.4,4.3,4.7,8.7,7.3,12.9c0.3,1.1,1.1,2,1.3,3.2c-0.3,2.3-0.6,4.6-0.8,7c-0.9,7-1.8,14.1-2.6,21.1
	c-0.5,4.2-1,8.4-1.5,12.6c-0.7,5.8-1.4,11.5-2.2,17.3c-0.6,4.5-1.1,9-1.7,13.5c-0.3,2.9-0.6,5.9-1,8.8c0,1.2-0.6,2.4-0.5,3.7
	c-0.7,5.4-1.3,10.8-2,16.2c-0.5,4.1-1,8.1-1.5,12.2c-0.6,4.6-1.1,9.2-1.7,13.7c-0.5,4.3-1.1,8.5-1.6,12.8
	C276,314.3,275.4,317.8,275.3,321.3z"/>
<path class="st4" d="M95.6,168.8c0.4,0.8,1.1,1.3,1.8,1.9c0.6,0.4,1.2,0.9,1.3,1.7c-12.1,0-24.3,0-36.6,0c0.5,4.2,1.3,8,2.2,11.8
	c5.8,23.1,19.2,40.6,39.7,52.6c13.2,7.8,27.6,12.4,42.5,15.5c10.5,2.1,21.2,3.3,31.9,4.1c4.5,0.3,9.1,0.5,13.6,0.8
	c1.8,0.8,3,2.1,4.1,3.6c-5.1,0.2-10.1-0.3-15.2-0.7c-2.8-0.2-5.6-0.4-8.4-0.6c-11.3-0.9-22.5-2.6-33.6-5.2
	c-11-2.6-21.7-6.3-31.8-11.5c-7.7-4-14.8-8.8-21.3-14.7c-7.8-7.1-14-15.4-18.6-24.8c-4.3-8.6-6.9-17.8-8.4-27.3
	c-0.4-2.4-0.8-4.7-0.9-7.1c0.5-0.4,0.9-0.3,1.4-0.3c11.6,0,23.3,0,34.9,0C94.9,168.7,95.2,168.7,95.6,168.8z"/>
<path class="st4" d="M351.9,260.8c1.1-1.5,2.4-2.9,4.1-3.6c3.8-0.3,7.5-0.4,11.3-0.7c5.1-0.4,10.1-0.8,15.1-1.4
	c9-1,17.8-2.5,26.6-4.7c15.4-3.8,29.9-9.6,42.7-19c8.8-6.4,16.1-14.2,21.8-23.6c5.5-9,8.9-18.7,11-29c0.4-2.1,1-4.2,0.9-6.5
	c-1,0-1.8,0-2.7,0c-11.1,0-22.2,0-33.3-0.1c0.8-1.4,2.4-2.2,3.2-3.5c1.4,0,2.7-0.1,4.1-0.1c10,0,20.1,0,30.1,0c0.8,0,1.6,0,2.6,0
	c0.4,1.8-0.1,3.4-0.4,5c-1.5,10.8-4.5,21.2-9.4,30.9c-3.3,6.4-7.4,12.4-12.2,17.7c-10.4,11.6-23.3,19.5-37.6,25.3
	c-10.8,4.4-22,7.2-33.5,9.2c-7.8,1.3-15.6,2.3-23.4,2.8c-4.8,0.3-9.5,0.8-14.3,0.9C356.4,260.7,354.1,260.9,351.9,260.8z"/>
<path class="st5" d="M225.2,422.8c1.7-1.6,3.2-3,4.7-4.5c0.7-0.7,1.2-0.7,1.9,0c0.9,1.1,1.9,2.2,2.9,3.2c1,1.1,1.3,1.2,2.5,0.2
	c1.1-0.9,2.1-2,3.1-3c1.5-1.4,1.6-1.4,3,0.2c1.1,1.3,2.2,2.5,3.5,3.9c1.2-1.2,2.2-2.4,3.4-3.4c2.9-2.5,2.1-2.2,4.4,0.1
	c3.2,3.2,3.1,3.3,6.3,0.2c2.4-2.4,2.4-2.4,4.7,0c0.7,0.7,1.3,1.5,1.9,2.2c0.6,0.7,1.1,0.8,1.8,0.1c1.1-1.2,2.3-2.4,3.5-3.5
	c1.1-1.1,1.3-1.1,2.4,0c1.3,1.3,2.3,3,3.9,4.1c1.6-1.4,3.2-2.8,4.7-4.3c0.7-0.7,1.3-0.9,2,0.1c0.9,1.1,1.9,2.2,2.9,3.2
	c1.1,1.1,1.3,1.1,2.4,0c1.1-1,2.2-2.1,3.2-3.2c0.8-0.9,1.5-0.9,2.3,0c1.1,1.2,2.2,2.3,3.2,3.5c0.7,0.9,1.1,0.7,1.8,0
	c1.2-1.2,2.4-2.4,3.6-3.5c1.2-1,1.2-1,2.4,0.1c0.9,0.9,1.7,1.9,2.6,2.9c1.1,1.2,1.1,1.1,2.4,0.2c1.2-0.9,2.2-1.9,3.2-2.9
	c1.5-1.4,1.5-1.4,2.8,0.1c1.2,1.3,2.4,2.5,3.8,4c1.3-1.3,2.5-2.4,3.7-3.7c0.9-1,2-1.5,3.4-1.5c22.3,0,44.5,0,66.8,0.1
	c0.7,0,2-0.6,2,0.7c-0.1,1.1-1.4,0.6-2.1,0.6c-21.7,0-43.5,0-65.2,0c-1.6,0-2.9,0.2-4,1.5c-1.1,1.3-2.4,2.3-3.6,3.5
	c-0.7,0.7-1.2,0.8-1.9,0c-1.1-1.3-2.3-2.5-3.4-3.7c-0.6-0.7-1.2-0.8-1.9,0c-1,1.1-2.1,2.2-3.2,3.2c-1.5,1.4-1.7,1.4-3-0.1
	c-1.1-1.3-2.2-2.5-3.5-3.9c-1.5,1.4-3,2.6-4.4,4c-1.4,1.3-1.4,1.4-2.8-0.1c-1-1-1.9-2-2.8-3c-0.6-0.7-1.2-0.7-1.9,0
	c-1.1,1.1-2.1,2.2-3.2,3.2c-1.4,1.3-1.4,1.3-2.7,0c-1-1.1-2.1-2-2.9-3.2c-0.6-0.9-1.2-0.8-2,0c-1.2,1.3-2.5,2.4-3.8,3.7
	c-0.7,0.7-1.2,0.6-1.9,0c-1.4-1.4-2.5-3.1-4.1-4.3c-1.7,1.1-3,2.5-4.4,3.9c-1.3,1.3-1.3,1.3-2.6,0c-1.3-1.3-2.7-2.5-4.2-3.8
	c-0.9,0.9-1.9,1.9-3,3c-0.4,0.4-0.9,0.8-1.4,1.2c-0.9,0.9-1.5,0.6-2.3-0.2c-1.2-1.4-2.5-2.7-3.8-4.1c-1.6,1.2-3.1,2.7-4.5,4.1
	c-1.2,1.2-1.3,1.2-2.5,0c-1.1-1.1-2.2-2.3-3.2-3.5c-0.5-0.6-1-0.6-1.5,0c-1.2,1.3-2.4,2.5-3.7,3.7c-1.1,1.1-1.4,1-2.4-0.1
	c-1.2-1.4-2.4-2.7-3.8-4.2c-1.6,1.5-3.2,2.8-4.7,4.3c-0.9,0.9-1.4,0.9-2.2,0c-1.2-1.3-2.4-2.5-3.6-3.8c-0.5-0.6-1.1-1-1.9-0.9
	c-0.5,0-1.1,0-1.6,0c-21.1,0-42.1,0-63.2,0c-0.8,0-2.4,0.7-2.4-0.7c0-1.1,1.5-0.6,2.3-0.6c21.5,0,43,0,64.5-0.1
	c1.7,0,2.9,0.5,3.9,1.8C223,420.6,224,421.6,225.2,422.8z"/>
<path class="st6" d="M296.9,398.7c0.9-6,2.1-11.5,3.2-17c0.4-2.2,0.8-4.3,1.2-6.5c0.2-1.2,2.4-1.9,3.2-1.2c0.5,0.4,0.3,1,0.3,1.5
	c0.1,5.3,0.1,10.6,0.2,16c0.1,3.6-0.3,7.1,0.3,10.7c0.1,0.7,0.4,1.8-1,1.8c-0.8,0-1.4-0.1-1.3-1.1c0-0.5,0-1.1,0-1.6
	c0-7.1,0-14.3,0-21.5c-0.6,0.2-0.7,0.7-0.7,1.2c-1.4,7.1-2.7,14.3-4.1,21.4c-0.2,0.9-0.2,1.6-1.4,1.6c-1.2-0.1-1.2-0.9-1.4-1.7
	c-1.4-7.4-2.8-14.7-4.2-22.1c0-0.1-0.1-0.3-0.4-0.8c0,1.2,0,2.1,0,2.9c0,6.6,0,13.2,0,19.8c0,0.6,0.2,1.3-0.4,1.7
	c-0.8,0.5-1.8-0.1-1.9-1.1c0-0.4,0-0.8,0-1.1c0-8.7,0.1-17.3,0.2-26c0-0.6-0.4-1.5,0.5-1.8c0.9-0.2,1.8-0.3,2.7,0.1
	c0.5,0.2,0.4,0.8,0.4,1.2c1.4,7.1,2.7,14.3,4.1,21.4C296.5,397.3,296.6,397.8,296.9,398.7z"/>
<path class="st6" d="M228.8,387.9c-2.5,1-4.6,1.9-6.7,2.7c-0.8,0.3-0.8,1-0.8,1.7c0,3.1,0,6.2,0,9.3c0,0.5,0,1.1,0,1.6
	c0,0.9-0.7,0.8-1.3,0.9c-0.7,0-1-0.3-1-0.9c0-0.5,0-0.9,0-1.4c0-8.5,0-17,0-25.5c0-0.5,0-0.9,0-1.4c0-0.9,0.5-0.9,1.2-0.9
	c0.7,0,1.2,0.2,1.1,1c0,0.5,0,0.9,0,1.4c0,3.2,0,6.4,0,9.6c0,0.7,0,1.5,0,2.4c2.5-0.6,4.6-1.8,6.8-2.6c0.9-0.3,0.6-1.1,0.6-1.8
	c0-2.9,0-5.8,0-8.7c0-1.2,0.7-1.6,1.7-1.3c1,0.3,0.6,1.1,0.6,1.7c0,8.8,0,17.6,0,26.4c0,0.3,0,0.6,0,0.9c0,0.8-0.4,1-1.1,1
	c-0.7,0-1.2-0.2-1.2-1c0-1.7,0-3.3,0-5C228.8,394.8,228.8,391.5,228.8,387.9z"/>
<path class="st7" d="M267.5,384.7c-0.4,2.1-0.4,2.1-2.3,2.1c-2,0-4,0.1-5.9,0c-1.1,0-1.4,0.4-1.4,1.5c0,4.4,0,8.8,0,13.2
	c0,0.5,0,1.1,0,1.6c0,1-0.5,1.1-1.3,1.1c-0.8,0-1.4-0.1-1.3-1.1c0-0.5,0-0.9,0-1.4c0-10.2,0-20.4,0-30.5c0-0.5,0-0.9,0-1.4
	c0-0.8,0.3-1.1,1.1-1.1c4.3,0,8.7,0,13,0c0.5,0,1,0.1,0.9,0.7c0,0.6,0,1.3-0.7,1.5c-0.5,0.1-1.1,0.1-1.6,0.1c-2.7,0-5.5,0-8.2,0
	c-1.8,0-1.8,0-1.8,1.7c0,3.4,0,6.8,0,10.3c0,1.2,0.3,1.6,1.5,1.6c1.9-0.1,3.8,0,5.7,0C265.9,384.5,266.6,384.3,267.5,384.7z"/>
<path class="st6" d="M276.5,383.8c-1.2,2.5-1.5,5.1-2.1,7.7c-0.8,3.6-1.5,7.3-2.3,10.9c-0.1,0.6-0.1,1.3-0.7,1.6
	c-0.5,0.2-1.2,0.3-1.7-0.1c-0.5-0.4-0.2-1-0.1-1.5c1.9-8.4,3.7-16.7,5.6-25.1c0.3-1.3,0.4-2.7,1.2-4.2c1,3.1,1.5,6,2.2,8.9
	c1.5,6.6,2.9,13.2,4.3,19.8c0.1,0.4,0.2,0.7,0.2,1.1c0.1,0.5,0.1,1.1-0.7,1.2c-0.6,0-1.4,0.3-1.7-0.7c-0.1-0.5-0.2-1-0.4-1.5
	C279.1,395.8,277.8,389.8,276.5,383.8z"/>
<path class="st6" d="M207.7,387.5c0-4.9,0-9.9,0-14.8c0-1.7,0-1.7-1.8-1.8c-1.1,0-2.1,0-3.2,0c-0.8,0-1.3-0.2-1.3-1.1
	c0-0.9,0.4-1.2,1.2-1.2c3.1,0,6.2,0,9.3,0c1.1,0,2.3,0,3.4,0c0.9,0,1.1,0.5,1.1,1.3c0,0.8-0.3,1.1-1.1,1c-1.1,0-2.1,0-3.2,0
	c-1.8,0-1.8,0-1.8,1.7c0,2.7,0,5.3,0,8c0,7.2,0,14.4,0,21.6c0,0.7,0.4,1.8-1,1.8c-1.5,0.1-1.7,0-1.7-1.6
	C207.7,397.5,207.7,392.5,207.7,387.5z"/>
<path class="st7" d="M237.5,388.8c0-4.4,0-8.8,0-13.2c0-1.6,0-1.6,1.7-1.6c2.6,0,5.2,0,7.7,0c0.5,0,1.1-0.2,1.4,0.5
	c0.3,0.8-0.1,1.5-1.1,1.5c-2,0-4,0.1-5.9,0c-1,0-1.5,0.3-1.5,1.4c0.1,2.9,0,5.8,0,8.7c0,1,0.4,1.4,1.3,1.3c1.5,0,3,0,4.6,0
	c0.8,0,1.3,0.2,1.3,1.1c0,1-0.6,1.1-1.3,1.1c-1.4,0-2.7,0-4.1,0c-1.7,0-1.7,0-1.7,1.6c0,3.1,0.1,6.2,0,9.3c0,1.3,0.5,1.5,1.6,1.5
	c1.8-0.1,3.6,0,5.5,0c0.8,0,1.5,0,1.5,1.2c0,1-0.7,1-1.4,1c-2.7,0-5.3-0.1-8,0c-1.3,0-1.5-0.5-1.5-1.6
	C237.5,397.9,237.5,393.4,237.5,388.8z"/>
<path class="st6" d="M339.2,387.1c1.1-3.2,2.1-6,3.1-8.8c0.3-0.9,0.6-1.7,0.9-2.6c0.6-2,0.9-2,2.8-1.6c0.2,0.6-0.1,1.1-0.3,1.7
	c-1.7,4.6-3.3,9.1-5,13.6c-0.4,1.1-0.6,2.2-0.6,3.3c0,3.3,0,6.7,0,10c0,1.2-0.5,1.5-1.5,1.3c-0.9-0.2-0.8-0.8-0.8-1.4
	c0-2.7-0.1-5.5,0-8.2c0.1-2.6-0.3-5.1-1.3-7.5c-1.5-3.7-2.6-7.4-3.9-11.1c-0.2-0.5-0.4-1-0.3-1.5c2.2-0.5,2.2-0.5,2.9,1.5
	c1,3,2,6,3,9.1C338.4,385.5,338.6,386.2,339.2,387.1z"/>
<path class="st7" d="M321.7,388.9c0-4.6,0-9.1,0-13.7c0-1.2,0.4-1.5,1.5-1.3c0.5,0.1,0.8,0.3,0.8,0.9c0,0.5,0,1.1,0,1.6
	c0,7.9,0,15.8,0,23.7c0,1.7,0,1.8,1.7,1.8c1.5,0,3,0,4.6,0c0.8,0,1.5,0,1.5,1.2c0,1-0.7,1-1.4,1c-2.4,0-4.9-0.1-7.3,0
	c-1.1,0-1.4-0.4-1.4-1.5C321.7,398.1,321.7,393.5,321.7,388.9z"/>
<path class="st6" d="M314.5,389.1c0,4.5,0,9,0,13.4c0,0.9,0,1.7-1.3,1.6c-0.6,0-1-0.2-1-0.9c0-0.5,0-0.9,0-1.4c0-8.6,0-17.2,0-25.7
	c0-0.5,0-0.9,0-1.4c0-0.8,0.6-0.8,1.1-0.8c0.5,0,1.1,0,1.2,0.7c0,0.5,0,1.1,0,1.6C314.5,380.5,314.5,384.8,314.5,389.1z"/>
<path class="st5" d="M141.2,421c-1.5-0.9-1.8-2.9-0.8-4.4c1.1-1.5,3.2-2,4.9-1c1.7,1,2.3,3.2,1.3,5c-0.9,1.5-3.2,2.3-4.8,1.4
	C141.4,421.9,141,421.6,141.2,421c0.7,0,1.4,0.5,2.2,0.5c1.6,0,2.8-1.1,2.9-2.6c0.1-1.6-1.2-2.9-2.7-3c-1.6,0-2.8,1.3-2.8,2.9
	C140.6,419.6,141.2,420.3,141.2,421z"/>
<path class="st2" d="M403.9,416.5c0.1-1.3,1.2-1.2,2-1.3c1.7-0.2,3.1,0.9,3.6,2.8c0.4,1.4-0.3,3.1-1.6,3.9c-1.3,0.8-3.4,0.6-4.5-0.4
	c-1.1-1-1.4-3.1-0.7-4.4C403.1,416.7,403.4,416.3,403.9,416.5c0.1,0.5-0.3,0.8-0.5,1.2c-0.5,1.2-0.1,2.7,0.9,3.4
	c0.8,0.6,2.5,0.6,3.4-0.1c1.1-0.8,1.4-2,0.9-3.2c-0.5-1.2-1.8-2-3.1-1.8C405,416.1,404.5,416.3,403.9,416.5z"/>
<path class="st3" d="M273.7,429.7c0.5,0,2.5,1.9,2.5,2.4c0,0.6-2,2.6-2.6,2.6c-0.5-0.1-2.4-2.1-2.4-2.6
	C271.2,431.6,273.2,429.7,273.7,429.7z"/>
<path class="st8" d="M192.3,257.1c-4.5-0.3-9.1-0.4-13.6-0.8c-10.7-0.8-21.4-2-31.9-4.1c-14.9-3-29.3-7.7-42.5-15.5
	c-20.5-12.1-33.9-29.5-39.7-52.6c-1-3.8-1.8-7.6-2.2-11.8c12.3,0,24.4,0,36.6,0c1.8,0.7,3,2.3,4.4,3.6c7.6,6.8,15.1,13.8,22.7,20.6
	c6.5,5.9,13,11.8,19.5,17.7c6.6,6,13.1,11.9,19.7,17.9c6.5,5.9,13,11.8,19.5,17.7c2.1,1.9,4.2,3.7,6.3,5.6
	C191.5,255.9,192.1,256.3,192.3,257.1z"/>
<path class="st8" d="M449.5,172.3c11.1,0,22.2,0,33.3,0.1c0.8,0,1.7,0,2.7,0c0.1,2.3-0.5,4.4-0.9,6.5c-2.1,10.3-5.5,20-11,29
	c-5.7,9.3-13,17.1-21.8,23.6c-12.9,9.4-27.4,15.2-42.7,19c-8.8,2.2-17.6,3.7-26.6,4.7c-5,0.5-10.1,1-15.1,1.4
	c-3.8,0.3-7.5,0.4-11.3,0.7c0.7-1.9,2.6-2.7,3.9-4c7-6.6,14.2-13,21.3-19.4c8.1-7.3,16.2-14.6,24.3-22c6.5-5.9,13-11.8,19.5-17.7
	c7.5-6.8,14.9-13.5,22.4-20.3C448.1,173.2,448.6,172.5,449.5,172.3z"/>
<path class="st8" d="M283.6,252.3c0.3-2.9,0.6-5.9,1-8.8c0.5-4.5,1.1-9,1.7-13.5c0.7-5.8,1.5-11.5,2.2-17.3c0.5-4.2,1-8.4,1.5-12.6
	c0.9-7,1.8-14.1,2.6-21.1c0.3-2.3,0.6-4.6,0.8-7c13.2,0,26.3,0,39.5,0c0.8,0,1.7-0.1,2.5,0.2c0.4,0.7-0.1,1.2-0.3,1.7
	c-7.6,18.9-15.3,37.9-22.9,56.8c-3,7.5-6,14.9-9,22.4c-0.2,0.6-0.4,1.2-0.9,1.6c-1.9-0.2-3.9-0.4-5.8-0.7
	C292.1,253.4,287.8,252.9,283.6,252.3z"/>
<path class="st8" d="M252.8,172c1.1,8.4,2.3,16.8,3.4,25.2c1,7.3,2,14.5,3,21.8c0.8,6,1.6,12,2.4,18c0.7,5.1,1.3,10.2,2,15.3
	c-0.4,0.3-0.9,0.3-1.3,0.3c-5.4,0.7-10.8,1.3-16.1,2c-2-4.1-3.5-8.4-5.3-12.6c-6.6-16.3-13.2-32.6-19.8-48.9
	c-2.6-6.5-5.3-13.1-7.9-19.6c-0.2-0.4-0.4-0.8-0.1-1.5C226.2,172,239.5,172,252.8,172z"/>
<path class="st9" d="M198.6,257.3c-0.4-0.1-0.8-0.3-1.2-0.6c-4.2-3.9-8.5-7.8-12.8-11.7c-5.4-4.9-10.8-9.7-16.2-14.6
	c-4.3-3.9-8.5-7.8-12.8-11.7c-7.1-6.5-14.3-12.9-21.4-19.4c-4.5-4.1-9-8.3-13.6-12.5c-5.1-4.6-10.2-9.3-15.3-13.9
	c-0.2-0.1-0.3-0.3-0.4-0.5c0.3-0.8,0.9-0.5,1.4-0.5c6.8,0,13.5,0,20.3,0c1.3,0,2.1,0.4,2.9,1.4c3,3.4,6.1,6.6,9.1,9.9
	c4.2,4.6,8.4,9.2,12.6,13.8c2.7,3,5.5,5.9,8.2,8.8c5,5.5,10.1,10.9,15.1,16.4c4.3,4.6,8.6,9.2,12.8,13.9c4.7,5.1,9.4,10.3,14.1,15.4
	c1.7,1.8,3.3,3.7,5,5.6C203.8,257.1,201.2,257.5,198.6,257.3z"/>
<path class="st9" d="M342.3,257.1c0.7-1.9,2.3-3,3.6-4.4c4.9-5.4,9.9-10.7,14.9-16c5.4-5.8,10.7-11.6,16-17.4
	c5.3-5.7,10.6-11.5,15.9-17.2c5.4-5.9,10.8-11.7,16.2-17.6c3.5-3.9,7-7.7,10.6-11.6c0.6-0.6,1-1,1.9-1c7.1,0,14.3,0,21.4,0
	c0.2,0,0.5,0,0.6,0.3c0.2,0.5-0.3,0.7-0.6,1c-4.3,3.9-8.7,7.8-13,11.7c-4.7,4.3-9.4,8.6-14.2,12.8c-5.4,4.9-10.7,9.8-16.1,14.7
	c-6.9,6.3-13.9,12.5-20.8,18.7c-4.2,3.8-8.4,7.7-12.6,11.5c-5,4.6-10.1,9.2-15.1,13.8c-0.3,0.3-0.7,0.5-1.2,0.6
	C347.2,257.5,344.8,257.2,342.3,257.1z"/>
<path class="st9" d="M306.2,255c0.4-2.2,1.5-4.1,2.3-6.2c6.3-15.6,12.6-31.2,18.9-46.9c3.8-9.4,7.7-18.8,11.5-28.3
	c0.4-1,0.7-1.7,2-1.7c7.1,0.1,14.1,0,21.1,0c0.5,0.7,0,1.1-0.2,1.5c-7.8,13.6-15.7,27.2-23.6,40.8c-7.8,13.4-15.5,26.8-23.3,40.2
	c-0.3,0.5-0.6,0.9-0.9,1.3C311.4,255.6,308.8,255.3,306.2,255z"/>
<path class="st9" d="M234.6,255.6c-1-0.2-1.2-1.1-1.6-1.8c-5.7-9.9-11.5-19.8-17.2-29.8c-9.5-16.5-19.1-33-28.6-49.4
	c-0.4-0.7-0.8-1.5-1.2-2.1c0.3-0.7,0.8-0.5,1.2-0.5c6.6,0,13.2,0,19.8,0c1.4,0,2,0.6,2.5,1.8c7,17.4,14,34.7,21,52.1
	c3.5,8.7,7.1,17.4,10.6,26.1c0.4,1,0.9,1.9,1,3C239.6,255.2,237.1,255.4,234.6,255.6z"/>
<path class="st9" d="M330,256.8c2.4-3.8,5.3-7.2,7.9-10.8c17.9-24,35.8-47.9,53.7-71.9c1.1-1.5,2.3-2.2,4.3-2.2
	c5.5,0.2,11.1,0,16.6,0.1c0.7,0,1.5-0.2,2.3,0.3c-0.8,1.5-2,2.6-3.1,3.7c-4.7,5.2-9.6,10.3-14.4,15.5c-5.8,6.3-11.5,12.7-17.3,19
	c-4.8,5.2-9.6,10.3-14.4,15.5c-4.8,5.2-9.5,10.4-14.3,15.6c-4.2,4.5-8.3,9-12.5,13.5c-0.7,0.7-1.1,1.7-2,2.2
	C334.6,256.8,332.3,256.9,330,256.8z"/>
<path class="st9" d="M318.6,256.2c-0.2-0.7,0.2-1.3,0.5-1.9c10.9-18.8,21.8-37.7,32.7-56.5c4.6-7.9,9.1-15.7,13.7-23.7
	c0.8-1.5,1.7-2.1,3.6-2.1c5.7,0.1,11.4,0.1,17.1,0.1c0.7,0,1.3,0,2,0c0.3,1-0.4,1.5-0.8,2.1c-9.1,12.1-18.1,24.2-27.2,36.3
	c-10.9,14.5-21.7,29-32.6,43.5c-0.7,0.9-1.1,2.2-2.4,2.6C322.9,256.4,320.7,256.3,318.6,256.2z"/>
<path class="st9" d="M211.5,257.2c-26.1-28.2-52-56.5-78.1-84.7c0.8-0.7,1.4-0.5,2-0.5c5.9,0,11.8,0,17.8,0c1.4,0,2.3,0.4,3.2,1.6
	c12.4,16.7,24.9,33.3,37.3,49.9c7.9,10.6,15.8,21.1,23.8,31.7c0.4,0.5,0.8,0.9,0.9,1.6C216,257,213.7,256.7,211.5,257.2z"/>
<path class="st9" d="M223.2,256.5c-1-0.3-1.3-1.2-1.9-1.9c-15.4-20.5-30.7-40.9-46-61.4c-4.7-6.3-9.5-12.6-14.2-19
	c-0.4-0.6-1.1-1.1-1.1-1.9c0.5-0.4,1-0.3,1.5-0.3c6.1,0,12.2,0,18.2,0c1.4,0,2.1,0.5,2.8,1.7c9.8,17,19.7,34,29.5,51
	c5.7,9.9,11.4,19.7,17.1,29.6c0.3,0.5,0.6,1.1,0.8,1.6C227.8,256.5,225.5,256.3,223.2,256.5z"/>
<path class="st10" d="M275.3,321.3c0.1-3.5,0.7-6.9,1.1-10.4c0.5-4.3,1.1-8.6,1.6-12.8c0.6-4.6,1.2-9.2,1.7-13.7
	c0.5-4.1,1-8.1,1.5-12.2c0.7-5.4,1.3-10.8,2-16.2c5.9,0.7,11.8,1.5,17.7,2.2c-1.3,4.2-3.2,8.2-4.8,12.2
	c-5.3,13.2-10.6,26.4-15.9,39.6c-1.3,3.3-2.7,6.6-4,9.9C275.9,320.4,275.8,320.9,275.3,321.3z"/>
<path class="st10" d="M264,255.9c0.5,3.7,1.1,7.3,1.6,11c0.7,5.2,1.5,10.5,2.2,15.7c0.7,4.9,1.3,9.9,2,14.8
	c0.9,6.3,1.7,12.6,2.6,18.9c0.2,1.1,0.3,2.3,0.4,3.4c-0.8-0.1-0.8-0.8-1-1.3c-6.4-15.9-12.9-31.9-19.3-47.8
	c-1.7-4.1-3.5-8.2-4.9-12.4c2.4-0.3,4.8-0.6,7.2-0.9C257.8,256.8,260.9,256.6,264,255.9z"/>
<path class="st11" d="M260.7,301c-0.8-0.2-0.9-0.9-1.3-1.5c-7.5-13-15-25.9-22.5-38.9c-0.3-0.5-0.5-0.9-0.5-1.5
	c2.3-0.2,4.6-0.4,6.9-0.7c0.7,0.4,0.8,1.2,1.1,1.9c5,12.3,9.9,24.5,14.8,36.8C259.8,298.5,260.7,299.6,260.7,301
	C260.7,301.1,260.7,301,260.7,301z"/>
<path class="st11" d="M288,300.1c0.3-2,1.4-3.8,2.1-5.7c3.1-7.7,6.2-15.5,9.4-23.2c1.5-3.6,2.9-7.2,4.3-10.7c0.3-0.7,0.5-1.5,1.1-2
	c2.3,0.2,4.6,0.4,6.9,0.7c0,0.8-0.4,1.4-0.8,2.1c-7.1,12.3-14.3,24.6-21.4,37c-0.4,0.7-0.8,1.3-1.2,1.9
	C288.3,300.1,288.1,300.1,288,300.1z"/>
<path class="st12" d="M209.6,260.8c1.8,1.3,3.1,3.1,4.7,4.7c3.4,3.5,6.6,7.1,9.9,10.7c6.2,6.8,12.4,13.5,18.6,20.3
	c0.1,0.2,0.2,0.4,0.3,0.6c-0.6,0.6-1,0-1.3-0.3c-4.3-3.9-8.5-7.8-12.8-11.7c-5.4-4.9-10.8-9.7-16.2-14.6c-2.7-2.4-5.4-4.9-8-7.4
	c-0.8-0.7-1.8-1.2-2.3-2.1C204.8,260.9,207.2,260.8,209.6,260.8z"/>
<path class="st12" d="M345.9,260.9c-3.4,3.1-6.8,6.3-10.2,9.4c-2.7,2.5-5.4,4.8-8.1,7.3c-4.8,4.3-9.6,8.6-14.3,13
	c-2,1.8-4,3.7-6,5.5c-0.6,0.5-1.1,1-1.8,1.3c-0.1-0.1-0.1-0.1-0.2-0.2c0.9-1.9,2.6-3.2,3.9-4.7c4.7-5.2,9.6-10.3,14.4-15.5
	c4.7-5.1,9.4-10.3,14.1-15.4c0.3-0.3,0.7-0.6,1.1-0.9C341.1,260.8,343.5,260.9,345.9,260.9z"/>
<path class="st12" d="M253.3,297c-2.4-2.6-4.4-5.6-6.5-8.4c-6.8-9-13.5-18-20.3-27.1c-0.4-0.5-0.6-1-1-1.5c2.1-0.2,4.3-0.4,6.4-0.5
	c1.8,2.1,2.9,4.6,4.3,6.9c5.5,9.4,10.9,18.7,16.3,28.1c0.4,0.7,0.9,1.4,1.1,2.2C253.5,296.8,253.4,296.9,253.3,297z"/>
<path class="st11" d="M295.7,295c1.1-2.7,2.8-5,4.2-7.5c5-8.7,10-17.4,15-26c0.4-0.7,0.8-1.3,1.3-1.9c2.1,0.2,4.3,0.4,6.4,0.5
	c-1.8,3-4.2,5.8-6.3,8.6c-6.3,8.5-12.7,17-19.1,25.4c-0.4,0.5-0.8,0.9-1.2,1.4C296,295.4,295.9,295.2,295.7,295z"/>
<path class="st12" d="M221,260.3c0.9,0.5,1.3,1.5,1.9,2.2c7.9,10.5,15.8,21,23.7,31.5c0.2,0.3,0.4,0.7,0.5,1
	c-0.1,0.1-0.2,0.2-0.3,0.3c-2.4-1.9-4.2-4.4-6.3-6.6c-4.1-4.3-8.1-8.6-12.1-13c-4.6-5.1-9.4-9.9-13.8-15.2
	C216.8,260.5,218.9,260.4,221,260.3z"/>
<path class="st12" d="M333.6,260.6c-1.2,1.9-2.9,3.3-4.3,5c-5.7,6.3-11.5,12.5-17.3,18.7c-2.9,3.1-5.7,6.3-8.6,9.4
	c-0.4,0.4-0.7,1-1.4,1c-0.3-0.4-0.2-0.7,0.1-1c8.2-11,16.5-22,24.7-33c0.1-0.2,0.3-0.3,0.5-0.4C329.4,260.4,331.5,260.5,333.6,260.6
	z"/>
<path class="st4" d="M300.8,258.2c-5.9-0.7-11.8-1.5-17.7-2.2c-0.1-1.3,0.4-2.4,0.5-3.7c4.2,0.6,8.5,1.2,12.7,1.7
	c1.9,0.3,3.9,0.4,5.8,0.7C302.1,256,301.4,257.1,300.8,258.2z"/>
<path class="st4" d="M264,255.9c-3.1,0.7-6.3,0.9-9.4,1.3c-2.4,0.3-4.8,0.6-7.2,0.9c-0.6-1.1-1.2-2.3-1.4-3.6
	c5.4-0.7,10.8-1.3,16.1-2c0.4-0.1,0.9,0,1.3-0.3C264.1,253.5,263.8,254.7,264,255.9z"/>
<path class="st6" d="M209.6,260.8c-2.4,0.1-4.8,0.1-7.2,0.2c-1.4-1.1-2.8-2.2-3.8-3.7c2.6,0.2,5.2-0.1,7.8-0.1
	C207.5,258.2,208.9,259.2,209.6,260.8z"/>
<path class="st6" d="M345.9,260.9c-2.4-0.1-4.8-0.1-7.2-0.2c1.1-1.3,1.8-3,3.6-3.6c2.5,0,4.9,0.3,7.4,0.1
	C348.7,258.8,347.3,259.9,345.9,260.9z"/>
<path class="st4" d="M243.4,258.5c-2.3,0.2-4.6,0.4-6.9,0.7c-1-1-1.9-2-1.9-3.5c2.5-0.2,5-0.4,7.5-0.6
	C242.9,256.1,243.4,257.2,243.4,258.5z"/>
<path class="st4" d="M311.8,259.2c-2.3-0.2-4.6-0.4-6.9-0.7c0.1-1.3,0.5-2.5,1.3-3.5c2.6,0.3,5.2,0.6,7.8,0.8
	C313.5,257.1,313,258.4,311.8,259.2z"/>
<path class="st6" d="M221,260.3c-2.1,0.1-4.2,0.2-6.3,0.3c-1.1-1.1-2.3-2-3.2-3.4c2.2-0.6,4.6-0.2,6.8-0.5
	C219.5,257.7,220.4,258.9,221,260.3z"/>
<path class="st4" d="M232,259.5c-2.1,0.2-4.3,0.4-6.4,0.5c-1.1-1-1.9-2.1-2.3-3.5c2.3-0.2,4.6,0,6.9-0.6
	C230.8,257,231.7,258.1,232,259.5z"/>
<path class="st4" d="M322.7,260.1c-2.1-0.2-4.3-0.4-6.4-0.5c0.5-1.4,1-2.6,2.3-3.4c2.2,0.1,4.3,0.2,6.5,0.3
	C324.9,258.1,323.7,259,322.7,260.1z"/>
<path class="st6" d="M333.6,260.6c-2.1-0.1-4.2-0.2-6.3-0.3c0.7-1.3,1.6-2.5,2.6-3.5c2.3,0.1,4.6,0,6.9,0.5
	C335.9,258.5,334.9,259.7,333.6,260.6z"/>
<path class="st12" d="M295.7,295c0.1,0.2,0.3,0.4,0.4,0.6c-0.8,1.2-1.3,2.5-2.7,3.2l0,0C294,297.4,294.8,296.1,295.7,295z"/>
<path class="st12" d="M299.5,297.4c0.3-0.9,0.8-1.6,1.6-2c0.1,0.1,0.2,0.2,0.3,0.2C300.9,296.4,300.6,297.4,299.5,297.4L299.5,297.4
	z"/>
<path class="st5" d="M303.6,299.5c-0.3,0.2-0.6,0.5-0.9,0.7l-0.1-0.1c0-0.6,0.3-1,0.8-1.4C303.4,299,303.5,299.2,303.6,299.5z"/>
<path class="st12" d="M248,296.4c0.4,0.1,0.6,0.3,0.7,0.7c0,0-0.1,0.2-0.1,0.1c-0.4-0.1-0.6-0.4-0.6-0.7L248,296.4z"/>
<path class="st12" d="M288,300.1c0.1,0,0.3,0,0.4,0c-0.1,0.3-0.2,0.8-0.6,0.7C287.5,300.7,287.7,300.3,288,300.1z"/>
<path class="st12" d="M249.7,298.8c-0.1-0.1-0.3-0.1-0.4-0.3c-0.1-0.1-0.4-0.3-0.2-0.5c0.2-0.1,0.4,0.1,0.4,0.3
	C249.7,298.5,249.7,298.6,249.7,298.8C249.7,298.8,249.7,298.8,249.7,298.8z"/>
<path class="st12" d="M246.4,300.7c-0.1,0-0.1,0.1-0.1,0.1c0-0.1-0.1-0.2-0.1-0.3c0,0,0.1-0.1,0.1-0.1
	C246.3,300.5,246.4,300.6,246.4,300.7z"/>
<path class="st12" d="M261.1,302c0.1,0.1,0.2,0.2,0.3,0.3c0,0-0.1,0.2-0.1,0.2C261.1,302.4,261.2,302.1,261.1,302L261.1,302z"/>
<path class="st12" d="M293.5,298.7c0,0.2-0.1,0.4-0.1,0.6C293,299,293.4,298.9,293.5,298.7C293.5,298.8,293.5,298.7,293.5,298.7z"/>
<path class="st5" d="M300.2,302.2c0-0.1,0-0.2,0.1-0.2c0.1,0,0.1,0,0.2,0.1c0,0.1,0,0.2-0.1,0.2
	C300.4,302.3,300.3,302.3,300.2,302.2z"/>
<path class="st12" d="M261.1,302c-0.4-0.2-0.5-0.5-0.4-0.9c0,0,0,0,0,0C261.1,301.2,261.1,301.6,261.1,302
	C261.1,302,261.1,302,261.1,302z"/>
<path class="st12" d="M247.4,296.1c-0.4-0.1-0.5-0.4-0.7-0.7c0.1-0.1,0.2-0.2,0.3-0.3c0.3,0.2,0.5,0.5,0.5,0.9
	C247.5,296,247.5,296,247.4,296.1z"/>
<path class="st12" d="M243.8,298.4c-0.3-0.1-0.5-0.3-0.5-0.6c0-0.1,0.2-0.2,0.2-0.2c0.3,0.1,0.4,0.4,0.4,0.6
	C243.9,298.2,243.8,298.3,243.8,298.4z"/>
<path class="st12" d="M299.4,297.4c0.1,0.4-0.1,0.7-0.4,0.9l0,0C299,297.9,299.1,297.6,299.4,297.4
	C299.5,297.4,299.4,297.4,299.4,297.4z"/>
<path class="st5" d="M301.8,301.1c-0.1,0.1-0.2,0.1-0.2,0.2C301.6,301.2,301.6,301.1,301.8,301.1L301.8,301.1z"/>
<polygon class="st12" points="287.5,301.7 287.3,301.8 287.4,301.6 "/>
<path class="st12" d="M304.5,298.4c-0.1,0.2-0.2,0.4-0.5,0.5c-0.1-0.1-0.1-0.1-0.2-0.2c0.1-0.2,0.2-0.4,0.4-0.4
	C304.4,298.2,304.5,298.3,304.5,298.4z"/>
<path class="st12" d="M301.1,295.4c0.1-0.2,0.3-0.4,0.5-0.2c0.2,0.2,0,0.4-0.2,0.5C301.3,295.6,301.2,295.5,301.1,295.4z"/>
<path class="st12" d="M244.7,299.3c-0.3,0-0.4-0.2-0.5-0.4c0.1-0.1,0.1-0.1,0.2-0.2c0.2,0.1,0.4,0.2,0.4,0.5L244.7,299.3z"/>
<path class="st12" d="M249.7,298.8c0.1,0,0.2,0.1,0.2,0.1C249.9,299,249.8,299,249.7,298.8C249.7,298.8,249.7,298.8,249.7,298.8z"/>
<path class="st12" d="M303.6,299.5c-0.1-0.2-0.1-0.5-0.2-0.7c0.2,0,0.3-0.1,0.5-0.1c0.1,0.1,0.1,0.1,0.2,0.2
	C303.9,299,303.7,299.3,303.6,299.5z"/>
<path class="st12" d="M253.7,297.5c-0.3-0.1-0.3-0.3-0.4-0.5c0.1-0.1,0.2-0.2,0.2-0.3c0.1,0.2,0.2,0.4,0.3,0.6
	C253.8,297.4,253.8,297.5,253.7,297.5z"/>
<path class="st12" d="M244.8,299.1c0.1,0.1,0.2,0.2,0.3,0.2c-0.2,0.3-0.3,0.1-0.4-0.1C244.7,299.3,244.8,299.1,244.8,299.1z"/>
<path class="st12" d="M253.9,297.3c0.2,0.1,0.4,0.2,0.2,0.4c-0.2,0.2-0.3-0.1-0.4-0.2C253.8,297.5,253.8,297.4,253.9,297.3z"/>
<path class="st5" d="M302.7,300.2c-0.2,0.2-0.3,0.3-0.5,0.5c0,0-0.1-0.1-0.1-0.1C302.3,300.4,302.5,300.3,302.7,300.2
	C302.6,300.1,302.7,300.2,302.7,300.2z"/>
<path class="st12" d="M305.4,297.5c-0.1,0.2-0.2,0.4-0.5,0.5c-0.1-0.1-0.1-0.1-0.2-0.2c0.2-0.2,0.3-0.3,0.5-0.5
	C305.3,297.3,305.4,297.4,305.4,297.5z"/>
<path class="st12" d="M247.9,296.5c-0.3,0-0.4-0.2-0.5-0.4c0.1-0.1,0.1-0.1,0.2-0.2c0.2,0.1,0.4,0.3,0.4,0.5
	C248,296.4,247.9,296.5,247.9,296.5z"/>
<path class="st12" d="M305,297.9c-0.1,0.2-0.2,0.4-0.5,0.5c-0.1-0.1-0.1-0.1-0.2-0.2c0.2-0.2,0.3-0.3,0.5-0.5
	C304.9,297.8,304.9,297.9,305,297.9z"/>
<path class="st12" d="M244.2,298.8c-0.2-0.1-0.4-0.2-0.5-0.5c0.1-0.1,0.1-0.1,0.2-0.2c0.2,0.2,0.3,0.3,0.5,0.5
	C244.3,298.7,244.3,298.8,244.2,298.8z"/>
<polygon class="st12" points="254.5,298.4 254.6,298.6 254.4,298.6 "/>
<path class="st12" d="M299,298.3c0,0.1-0.1,0.2-0.1,0.2C298.7,298.4,298.8,298.4,299,298.3C299,298.3,299,298.3,299,298.3z"/>
<path class="st5" d="M301.7,301c0.1-0.1,0.3-0.3,0.4-0.4c0,0,0.1,0.1,0.1,0.1C302.1,300.8,301.9,300.9,301.7,301
	C301.8,301.1,301.7,301,301.7,301z"/>
<path class="st11" d="M141.2,421c0-0.8-0.5-1.4-0.5-2.2c0-1.6,1.3-2.9,2.8-2.9c1.6,0,2.8,1.4,2.7,3c-0.1,1.5-1.3,2.5-2.9,2.6
	C142.5,421.5,141.9,421,141.2,421C141.2,421,141.2,421,141.2,421z"/>
<path class="st12" d="M403.9,416.5c0.6-0.2,1.1-0.4,1.7-0.5c1.3-0.2,2.6,0.6,3.1,1.8c0.5,1.2,0.1,2.4-0.9,3.2
	c-0.9,0.7-2.6,0.7-3.4,0.1c-1-0.7-1.4-2.2-0.9-3.4C403.6,417.3,404,416.9,403.9,416.5C403.9,416.4,403.9,416.5,403.9,416.5z"/>
</svg>
