<?xml version="1.0" encoding="UTF-8"?>
<svg width="28px" height="29px" viewBox="0 0 28 29" version="1.1" xmlns="http://www.w3.org/2000/svg" xmlns:xlink="http://www.w3.org/1999/xlink">
    <!-- Generator: Sketch 43.1 (39012) - http://www.bohemiancoding.com/sketch -->
    <title>twitter</title>
    <desc>Created with Sketch.</desc>
    <defs></defs>
    <g id="Page-1" stroke="none" strokeWidth="1" fill="none" fillRule="evenodd">
        <g id="Artboard-Copy-6" transform="translate(-974.000000, -5444.000000)" fillRule="nonzero">
            <g id="twitter" transform="translate(974.000000, 5444.298246)">
                <polygon id="Fill-8-Copy" fill="#333333" points="8.18157336 0 1.13686838e-13 8.1933285 1.13686838e-13 19.7808178 8.18157336 27.97444 19.7524378 27.97444 27.9343045 19.7808178 27.9343045 8.1933285 19.7524378 0"></polygon>
                <path d="M20,10.2212334 C19.5215278,10.4269293 19.008134,10.5664299 18.468719,10.6287096 C19.0194984,10.3087175 19.4411062,9.80116519 19.6409281,9.19823557 C19.1242843,9.4945688 18.5540049,9.70974477 17.9463611,9.8263903 C17.4597745,9.32277425 16.767652,9.00908846 15.9999722,9.00908846 C14.5271912,9.00908846 13.3330392,10.1676506 13.3330392,11.5957546 C13.3330392,11.7982974 13.3565964,11.9961208 13.4020964,12.1852885 C11.1860212,12.0772987 9.22096078,11.0472115 7.90577288,9.48195625 C7.67587255,9.86342422 7.5450866,10.3079138 7.5450866,10.782389 C7.5450866,11.6800856 8.01625163,12.4721623 8.73112418,12.9355707 C8.29407353,12.9213919 7.88302288,12.8047464 7.52316503,12.6108592 L7.52316503,12.6431737 C7.52316503,13.8963094 8.4427451,14.9421623 9.66206863,15.1801934 C9.4386683,15.2385162 9.20309641,15.2708307 8.95938889,15.2708307 C8.78718137,15.2708307 8.62064542,15.2542819 8.45735948,15.2227505 C8.79691013,16.2512714 9.7814902,16.9992042 10.9480278,17.0197099 C10.0357549,17.7132768 8.88546732,18.1254724 7.6360866,18.1254724 C7.4208219,18.1254724 7.20878595,18.1128599 7.00002124,18.0900048 C8.18036601,18.8253456 9.5816683,19.25409 11.0877565,19.25409 C15.9935147,19.25409 18.6750833,15.3118215 18.6750833,11.8928916 L18.6661405,11.5579375 C19.1900915,11.1953678 19.6433709,10.739832 20,10.2212334 Z" id="Shape" fill="#FFFFFF"></path>
            </g>
        </g>
    </g>
</svg>