<svg width="24px" height="30px" viewBox="0 0 24 30" version="1.1" xmlns="http://www.w3.org/2000/svg">
    <g stroke="none" strokeWidth="1" fill="none" fillRule="evenodd">
        <g id="iconcolors2" fill="#292929">
            <path d="M9.419,22.326 C10.575,22.326 11.512,23.263 11.512,24.419 C11.512,25.574 10.575,26.512 9.419,26.512 C8.263,26.512 7.326,25.574 7.326,24.419 C7.326,23.263 8.263,22.326 9.419,22.326 M5.756,15.698 C7.008,15.698 8.023,16.713 8.023,17.965 C8.023,19.218 7.008,20.232 5.756,20.232 C4.504,20.232 3.489,19.218 3.489,17.965 C3.489,16.713 4.504,15.698 5.756,15.698 M6.977,7.326 C8.326,7.326 9.419,8.419 9.419,9.767 C9.419,11.116 8.326,12.209 6.977,12.209 C5.628,12.209 4.535,11.116 4.535,9.767 C4.535,8.419 5.628,7.326 6.977,7.326 M13.605,3.139 C14.954,3.139 16.047,4.233 16.047,5.582 C16.047,6.93 14.954,8.023 13.605,8.023 C12.256,8.023 11.163,6.93 11.163,5.582 C11.163,4.233 12.256,3.139 13.605,3.139 M13.605,0 C4.273,0 0,7.675 0,14.651 C0,21.279 3.749,29.823 10.117,30 C12.243,30 15.349,28.954 16.396,19.884 C17.442,11.512 23.721,13.954 23.721,8.023 C23.721,3.837 19.535,0 13.605,0"></path>
        </g>
    </g>
</svg>