<svg width="31px" height="26px" viewBox="0 0 31 26" version="1.1" xmlns="http://www.w3.org/2000/svg">
    <g stroke="none" strokeWidth="1" fill="none" fillRule="evenodd">
        <g id="iconsettings">
            <g >
                <path d="M24.246,9.7256 C23.134,10.2056 21.843,9.6946 21.362,8.5826 C20.882,7.4706 21.393,6.1796 22.505,5.6996 C23.617,5.2186 24.908,5.7296 25.389,6.8416 L25.39,6.8446 C25.869,7.9546 25.359,9.2446 24.249,9.7256 L24.246,9.7256 Z M30.505,4.6276 C30.277,4.0996 29.647,3.6986 29.104,3.7366 C28.562,3.7746 27.934,3.5626 27.656,3.2976 C27.378,3.0336 27.153,2.4066 27.173,1.8606 C27.194,1.3156 26.773,0.7036 26.237,0.4896 C25.7,0.2766 24.974,0.4386 24.617,0.8466 C24.26,1.2546 23.661,1.5546 23.281,1.5666 C22.9,1.5786 22.294,1.2926 21.926,0.8956 C21.557,0.4966 20.824,0.3556 20.296,0.5826 C19.767,0.8116 19.364,1.4406 19.402,1.9836 C19.439,2.5266 19.227,3.1546 18.963,3.4326 C18.698,3.7096 18.071,3.9326 17.529,3.9146 C16.986,3.8976 16.371,4.3166 16.158,4.8536 C15.944,5.3906 16.106,6.1166 16.515,6.4726 C16.923,6.8296 17.223,7.4286 17.234,7.8076 C17.246,8.1866 16.962,8.7936 16.563,9.1636 C16.163,9.5316 16.02,10.2626 16.251,10.7936 C16.482,11.3256 17.109,11.7266 17.651,11.6886 C18.194,11.6506 18.822,11.8626 19.1,12.1266 C19.378,12.3926 19.603,13.0156 19.583,13.5616 C19.562,14.1076 19.982,14.7186 20.521,14.9326 C21.059,15.1456 21.784,14.9836 22.141,14.5756 C22.498,14.1666 23.095,13.8676 23.475,13.8616 C23.856,13.8556 24.462,14.1376 24.833,14.5366 C25.205,14.9336 25.936,15.0706 26.465,14.8416 C26.993,14.6136 27.397,13.9876 27.359,13.4446 C27.321,12.9016 27.533,12.2736 27.798,11.9956 C28.063,11.7176 28.687,11.4956 29.233,11.5166 C29.779,11.5386 30.391,11.1176 30.604,10.5796 C30.818,10.0406 30.659,9.3166 30.247,8.9556 C29.836,8.5966 29.536,8.0046 29.526,7.6206 C29.516,7.2356 29.8,6.6336 30.201,6.2656 C30.608,5.8236 30.726,5.1866 30.505,4.6276 Z" fill="#292929"></path>
                <path d="M13.053147,18.2332027 C11.2828482,18.9994831 9.22811286,18.1843815 8.46183245,16.4140827 C7.69661336,14.6437839 8.51171497,12.5890486 10.2820138,11.8238295 C12.0512512,11.0575491 14.1070479,11.8726507 14.872267,13.6429495 C14.8733283,13.6440108 14.8733283,13.6461335 14.8743896,13.6471948 C15.637486,15.4153709 14.8245071,17.4669222 13.0584536,18.2332027 L13.053147,18.2332027 Z M23.0169151,10.1182718 C22.6539401,9.27769828 21.6520444,8.63877749 20.7881216,8.70033464 C19.9241988,8.75976913 18.9244257,8.42226612 18.481851,7.99985669 C18.0392763,7.57956993 17.6805467,6.58191952 17.713448,5.71269008 C17.7452879,4.84452196 17.0777112,3.87022082 16.222279,3.52953382 C15.3668468,3.18990815 14.2110582,3.44887272 13.6432466,4.09946814 C13.0754349,4.74900224 12.1223604,5.22660084 11.5163408,5.24570478 C10.9103213,5.26374739 9.94663342,4.80949806 9.35971781,4.17588392 C8.77174087,3.54226978 7.60533896,3.31620644 6.7637041,3.67918138 C5.92313057,4.04321764 5.27996445,5.04405204 5.34046028,5.90903617 C5.40201743,6.77295896 5.06345309,7.77273203 4.64210499,8.21530673 C4.2207569,8.65788143 3.22310649,9.01236572 2.3591837,8.98370981 C1.49419957,8.95611522 0.515653108,9.6226306 0.176027438,10.4770014 C-0.163598232,11.3324336 0.0953663413,12.4871609 0.744900435,13.0560339 C1.39443453,13.6238455 1.87203313,14.5769201 1.89007574,15.1808169 C1.90917968,15.7836525 1.45705301,16.7505243 0.82131621,17.3374399 C0.18557941,17.9243556 -0.042606587,19.0896961 0.325674999,19.9355763 C0.692895254,20.7803952 1.69054566,21.419316 2.55446846,21.3577588 C3.41839125,21.2983243 4.41816432,21.6358273 4.86073902,22.0582368 C5.30331372,22.4785235 5.66204333,23.4719286 5.6291421,24.3400967 C5.59730219,25.2093262 6.2648789,26.182566 7.12349504,26.523253 C7.97998853,26.8628787 9.13365448,26.6049754 9.70146614,25.95438 C10.2703391,25.3048459 11.2202297,24.8272473 11.8262492,24.8176953 C12.4322688,24.8081434 13.3959566,25.2581474 13.9881789,25.8917615 C14.5793398,26.5243143 15.7446804,26.741887 16.5852539,26.3789121 C17.4268888,26.0148758 18.0700549,25.0182867 18.0084978,24.1533026 C17.9480019,23.2904411 18.2865663,22.2896067 18.7079144,21.847032 C19.1292625,21.4044573 20.1237289,21.0510344 20.9929583,21.0860583 C21.8621878,21.1210822 22.8354276,20.4503215 23.1761146,19.5927667 C23.5157403,18.7352118 23.2620823,17.5826072 22.6072416,17.0094889 C21.9524008,16.4363706 21.4758636,15.4949707 21.4588823,14.8825832 C21.4429623,14.2701956 21.895089,13.3118144 22.5329485,12.7259602 C23.1814212,12.0212369 23.370338,11.0076665 23.0169151,10.1182718 Z" fill="#FFFFFF"></path>
                <path d="M12.9176294,17.917518 C11.3216086,18.6083615 9.4691527,17.873503 8.77830913,16.2774821 C8.08842242,14.6814613 8.82328094,12.8290054 10.4193018,12.1391187 C12.0143658,11.4482751 13.8677785,12.1831337 14.5576653,13.7791545 C14.5586221,13.7801114 14.5586221,13.7820251 14.559579,13.7829819 C15.247552,15.3770891 14.5146071,17.2266744 12.9224137,17.917518 L12.9176294,17.917518 Z M21.9005095,10.6014655 C21.5732678,9.84364264 20.6700042,9.26762073 19.8911307,9.32311785 C19.1122572,9.37670129 18.2109073,9.07242393 17.811902,8.69159881 C17.4128968,8.31268738 17.0894825,7.41325116 17.1191448,6.62959343 C17.1478502,5.84689255 16.5459934,4.96850697 15.7747747,4.66135907 C15.003556,4.35516802 13.9615496,4.58863869 13.4496364,5.17518593 C12.9377232,5.76077632 12.0784746,6.19135749 11.5321149,6.20858074 C10.9857553,6.22484714 10.1169381,5.8153166 9.58780173,5.24407892 C9.05770847,4.67284123 8.00613357,4.46903281 7.24735387,4.7962745 C6.48953101,5.12447304 5.9096817,6.0267798 5.96422198,6.80661014 C6.01971911,7.58548363 5.71448491,8.48683354 5.33461663,8.88583876 C4.95474836,9.28484397 4.05531214,9.60443088 3.27643865,9.57859601 C2.49660831,9.55371799 1.61439534,10.1546179 1.30820428,10.9248798 C1.00201323,11.6960985 1.23548391,12.7371481 1.8210743,13.2500181 C2.40666469,13.7619313 2.83724585,14.6211799 2.85351225,15.1656259 C2.8707355,15.709115 2.46311866,16.5808027 1.88996728,17.1099391 C1.31681591,17.6390755 1.11109379,18.6896935 1.44311971,19.4523006 C1.77418879,20.2139509 2.67362501,20.7899728 3.4524985,20.7344757 C4.23137199,20.6808922 5.13272191,20.9851696 5.53172712,21.3659947 C5.93073234,21.7449061 6.25414664,22.640515 6.22448438,23.4232159 C6.19577897,24.2068736 6.79763576,25.0843023 7.57172501,25.3914502 C8.34390058,25.6976413 9.38399331,25.4651274 9.89590648,24.8785802 C10.4087765,24.2929898 11.2651546,23.8624086 11.8115143,23.853797 C12.3578739,23.8451854 13.226691,24.2508885 13.7606117,24.8221262 C14.2935755,25.3924071 15.3441935,25.5885607 16.1020164,25.261319 C16.8607961,24.9331205 17.4406454,24.0346411 17.3851483,23.2548108 C17.330608,22.4768941 17.6358422,21.5745874 18.0157105,21.1755822 C18.3955787,20.7765769 19.2921444,20.4579469 20.0758021,20.4895228 C20.8594599,20.5210988 21.7368886,19.9163714 22.0440365,19.143239 C22.3502276,18.3701066 22.1215411,17.3309707 21.5311665,16.8142733 C20.9407919,16.2975759 20.5111676,15.4488526 20.495858,14.8967519 C20.4815053,14.3446511 20.8891221,13.4806182 21.4641872,12.9524387 C22.0488207,12.3170922 22.2191395,11.4033033 21.9005095,10.6014655 Z" fill="#292929"></path>
            </g>
        </g>
    </g>
</svg>