<svg width="30px" height="30px" viewBox="0 0 30 30" version="1.1" xmlns="http://www.w3.org/2000/svg">
    <g stroke="none" strokeWidth="1" fill="none" fillRule="evenodd">
        <g id="iconconnect2" fill="#292929">
            <path d="M20.5857864,9 L10,9 C9.44771525,9 9,9.44771525 9,10 C9,10.5522847 9.44771525,11 10,11 L20.5857864,11 L18.2928932,13.2928932 C17.9023689,13.6834175 17.9023689,14.3165825 18.2928932,14.7071068 C18.6834175,15.0976311 19.3165825,15.0976311 19.7071068,14.7071068 L23.7071068,10.7071068 C23.8880712,10.5261424 24,10.2761424 24,10 C24,9.72385763 23.8880712,9.47385763 23.7071068,9.29289322 L19.7071068,5.29289322 C19.3165825,4.90236893 18.6834175,4.90236893 18.2928932,5.29289322 C17.9023689,5.68341751 17.9023689,6.31658249 18.2928932,6.70710678 L20.5857864,9 Z M6.29289322,20.7071068 L10.2928932,24.7071068 C10.6834175,25.0976311 11.3165825,25.0976311 11.7071068,24.7071068 C12.0976311,24.3165825 12.0976311,23.6834175 11.7071068,23.2928932 L9.41421356,21 L20,21 C20.5522847,21 21,20.5522847 21,20 C21,19.4477153 20.5522847,19 20,19 L9.41421356,19 L11.7071068,16.7071068 C12.0976311,16.3165825 12.0976311,15.6834175 11.7071068,15.2928932 C11.3165825,14.9023689 10.6834175,14.9023689 10.2928932,15.2928932 L6.29289322,19.2928932 C6.11192881,19.4738576 6,19.7238576 6,20 C6,20.2761424 6.11192881,20.5261424 6.29289322,20.7071068 Z M7.61513692,1.17157288 C8.36528243,0.421427361 9.38269808,1.97123475e-15 10.443564,1.77635684e-15 L19.556302,3.55271368e-15 C20.6171558,3.357838e-15 21.6345608,0.421417706 22.3847043,1.17154801 L28.8284023,7.61513265 C29.578563,8.36528019 30,9.3827065 30,10.4435846 L30,19.5562814 C30,20.6171474 29.5785726,21.6345631 28.8284271,22.3847086 L22.3847086,28.8284271 C21.6345631,29.5785726 20.6171474,30 19.5562814,30 L10.4435846,30 C9.3827065,30 8.36528019,29.578563 7.61513265,28.8284023 L1.17154801,22.3847043 C0.421417706,21.6345608 1.90627396e-15,20.6171558 1.77635684e-15,19.556302 L8.8817842e-16,10.443564 C7.5825981e-16,9.38269808 0.421427361,8.36528243 1.17157288,7.61513692 L7.61513692,1.17157288 Z"></path>
        </g>
    </g>
</svg>