<svg width="30px" height="30px" viewBox="0 0 30 30" version="1.1" xmlns="http://www.w3.org/2000/svg">
    <g stroke="none" strokeWidth="1" fill="none" fillRule="evenodd">
        <g id="iconpower" fill="#292929">
            <g>
                <path d="M14.573,17.846 C13.704,17.846 13,17.142 13,16.273 L13,1.574 C13,0.704 13.704,0 14.573,0 C15.442,0 16.147,0.704 16.147,1.574 L16.147,16.273 C16.147,17.142 15.442,17.846 14.573,17.846 Z M25.8242383,4.92459793 C31.1492383,11.0625979 30.4912383,20.3545979 24.3542383,25.6785979 C18.2172383,31.0035979 8.92523832,30.3455979 3.60023832,24.2085979 C-1.72476168,18.0705979 -1.06676168,8.77959793 5.07023832,3.45459793 C5.72623832,2.88459793 6.72023832,2.95459793 7.29023832,3.61159793 C7.86023832,4.26659793 7.79023832,5.26059793 7.13423832,5.83059793 C4.60223832,8.02759793 3.14823832,11.2145979 3.14823832,14.5675979 C3.14823832,20.9445979 8.33323832,26.1315979 14.7112383,26.1315979 C21.0882383,26.1315979 26.2762383,20.9435979 26.2762383,14.5665979 C26.2782383,11.1815979 24.7952383,7.96659793 22.2202383,5.76959793 C21.5592383,5.20459793 21.4812383,4.21159793 22.0462383,3.55159793 C22.6102383,2.89059793 23.6032383,2.81259793 24.2642383,3.37759793 C24.8222383,3.85359793 25.3442383,4.37059793 25.8242383,4.92459793 Z"></path>
            </g>
        </g>
    </g>
</svg>