<svg width="30px" height="27px" viewBox="0 0 30 27" version="1.1" xmlns="http://www.w3.org/2000/svg">
    <g stroke="none" strokeWidth="1" fill="none" fillRule="evenodd">
        <g id="iconnoise2" fill="#292929">
            <path d="M21.3808263,0.108541526 C24.5465728,1.5762899 27.0935699,4.09103711 28.5785683,7.21778364 C32.0915644,14.6135254 28.868818,23.4222657 21.3808263,26.8917618 C20.5243272,27.1947615 19.5725783,26.8467619 19.1218288,26.0667627 C18.6080794,25.1787637 18.920829,24.047015 19.819328,23.5407655 C22.1638254,22.4420167 24.0523233,20.5767688 25.1638221,18.2622714 C27.8263191,12.7167775 25.4338218,6.09053489 19.819328,3.46103781 C19.0303289,3.0155383 18.6778293,2.07503934 18.9838289,1.22979028 C19.3325785,0.266041351 20.4058274,-0.235708092 21.3808263,0.108541526 Z M6.56249272,7.01648386 L12.9614856,0.918990627 C13.3897351,0.443491155 14.1277343,0.401491201 14.6092338,0.824490732 C14.8597335,1.04424049 15.0022334,1.36074014 15.0007334,1.69223977 L15.0007334,25.3044636 C15.0044834,25.9404629 14.4847339,26.4602123 13.8397346,26.4639623 C13.504485,26.4662123 13.1842354,26.3252124 12.9614856,26.0777127 L6.56249272,19.9802195 L2.81249688,19.9802195 C1.2592486,19.9802195 0,18.7359709 0,17.2022226 L0,9.79448078 C0,8.25998248 1.2592486,7.01648386 2.81249688,7.01648386 L6.56249272,7.01648386 Z M20.3490524,18.6841459 C20.1825526,18.8476457 19.9590529,18.9436456 19.7235531,18.9526456 C19.2060537,18.9721456 18.7703042,18.573896 18.7508042,18.0631466 L18.7508042,8.93340673 C18.7598042,8.70090699 18.8573041,8.48040724 19.0230539,8.31540742 C19.3890535,7.95315782 19.9823028,7.95240782 20.3490524,8.31240742 C23.2080492,11.1931542 23.2080492,15.8033991 20.3490524,18.6841459 Z"></path>
        </g>
    </g>
</svg>