<svg width="31px" height="21px" viewBox="0 0 31 21" version="1.1" xmlns="http://www.w3.org/2000/svg">
    <g stroke="none" strokeWidth="1" fill="none" fillRule="evenodd">
        <g id="iconwireless" fill="#292929">
            <g>
                <path d="M5.457,2.5419 C1.638,7.1459 1.641,13.9009 5.466,18.5029 C5.882,19.0039 5.869,19.7319 5.414,20.1979 L5.394,20.2179 C4.882,20.7419 4.019,20.7289 3.548,20.1669 C-1.108,14.5979 -1.105,6.4629 3.558,0.8969 C4.025,0.3399 4.879,0.3219 5.394,0.8359 C5.858,1.3009 5.876,2.0359 5.457,2.5419 Z M8.9799,5.2255 C9.4129,5.6585 9.4679,6.3385 9.1139,6.8365 C8.3389,7.9255 7.9519,9.2105 7.9519,10.4965 C7.9519,11.7815 8.3389,13.0665 9.1139,14.1545 C9.4679,14.6535 9.4129,15.3335 8.9799,15.7665 C8.4379,16.3085 7.5269,16.2525 7.0819,15.6285 C4.9029,12.5795 4.9029,8.4135 7.0819,5.3635 C7.5269,4.7395 8.4379,4.6835 8.9799,5.2255 Z M24.7231,0.8358 C25.2371,0.3218 26.0921,0.3398 26.5591,0.8978 C31.2221,6.4628 31.2251,14.5978 26.5691,20.1668 C26.0981,20.7298 25.2351,20.7418 24.7231,20.2178 L24.7031,20.1978 C24.2481,19.7318 24.2341,19.0038 24.6511,18.5028 C28.4761,13.9008 28.4791,7.1468 24.6601,2.5418 C24.2401,2.0358 24.2581,1.3008 24.7231,0.8358 Z M21.1371,5.2255 C21.6791,4.6835 22.5891,4.7395 23.0341,5.3635 C25.2141,8.4135 25.2141,12.5795 23.0341,15.6285 C22.5891,16.2525 21.6791,16.3085 21.1371,15.7665 C20.7041,15.3335 20.6481,14.6535 21.0031,14.1545 C21.7771,13.0665 22.1641,11.7815 22.1641,10.4965 C22.1641,9.2105 21.7771,7.9255 21.0031,6.8365 C20.6481,6.3385 20.7041,5.6585 21.1371,5.2255 Z M10.8901,10.5175 C10.8901,8.1925 12.7921,6.2895 15.1171,6.2895 C17.4421,6.2895 19.3441,8.1925 19.3441,10.5175 C19.3441,12.8415 17.4421,14.7445 15.1171,14.7445 C12.7921,14.7445 10.8901,12.8415 10.8901,10.5175 Z" ></path>
            </g>
        </g>
    </g>
</svg>