<?xml version="1.0" encoding="UTF-8"?>
<svg width="91px" height="91px" viewBox="0 0 91 91" version="1.1" xmlns="http://www.w3.org/2000/svg" xmlns:xlink="http://www.w3.org/1999/xlink">
    <!-- Generator: Sketch 43.1 (39012) - http://www.bohemiancoding.com/sketch -->
    <title>Group 49</title>
    <desc>Created with Sketch.</desc>
    <defs></defs>
    <g id="Page-1" stroke="none" strokeWidth="1" fill="none" fillRule="evenodd">
        <g id="Artboard-Copy-6" transform="translate(-675.000000, -2040.000000)">
            <g id="Group-49" transform="translate(675.000000, 2040.000000)">
                <rect id="Rectangle-27" fill="#FFFFFF" x="0" y="0" width="91" height="91"></rect>
                <g id="Group-7" transform="translate(14.000000, 13.000000)" fillRule="nonzero">
                    <g id="Group-11" transform="translate(5.000000, 0.000000)">
                        <g id="001-flash" transform="translate(21.345161, 19.625568)" stroke="#0021f5" fill="#0021f5">
                            <path d="M1.79498083,28.2526549 C1.7181666,28.2526549 1.64135237,28.2338329 1.57248444,28.1944778 C1.3879537,28.0901014 1.30672486,27.8736486 1.3800074,27.6785844 L5.99151006,15.393817 L0.417622201,13.8529809 C0.273705882,13.8136258 0.159808918,13.7058272 0.115662808,13.5672289 C0.0723996205,13.4286307 0.103301898,13.2771993 0.20042334,13.1659784 L11.5062421,0.151431424 C11.6404463,-0.00342217907 11.8682402,-0.0436327832 12.051888,0.0496215966 C12.2355359,0.144587066 12.3264769,0.352484445 12.268204,0.545837562 L9.00845522,11.5027994 L14.6123624,13.052191 C14.7571617,13.091546 14.8710586,13.2002002 14.9143218,13.339654 C14.9584679,13.4791078 14.9249169,13.6313948 14.8269125,13.7417601 L2.13049127,28.1037901 C2.0439649,28.2004667 1.92035579,28.2526549 1.79498083,28.2526549 Z M1.31467116,13.2113223 L6.6890186,14.6956925 C6.80733017,14.7282032 6.90533454,14.8069133 6.96184156,14.9121453 C7.01746565,15.0182329 7.02541195,15.1414313 6.98303169,15.2526521 L3.03990114,25.7570308 L13.7082501,13.6895718 L8.34096603,12.2069128 C8.22795199,12.1761131 8.13259639,12.1025363 8.07520645,12.0032931 C8.01781651,11.9040499 8.00457268,11.7868403 8.0372408,11.6773305 L10.8449334,2.24152729 L1.31467116,13.2113223 Z" id="Shape"></path>
                        </g>
                        <g id="Group-7-Copy" transform="translate(21.000000, 12.156031) scale(1, -1) rotate(20.000000) translate(-21.000000, -12.156031) translate(1.500000, 6.656031)" stroke="#FFFFFF" strokeWidth="0.5" fill="#333333">
                            <path d="M20.2012533,10.6468597 C12.9019758,10.6468597 5.60269824,7.60956334 0.255553075,1.70853049 L1.52868288,0.493611961 C11.0347187,11.0807591 27.1610296,11.7749983 37.4309433,1.96887017 L38.6191978,3.2705686 C33.3569279,8.2170226 26.736653,10.6468597 20.2012533,10.6468597 Z" id="Shape"></path>
                        </g>
                        <g id="Group-7-Copy-2" transform="translate(38.000000, 53.156031) scale(-1, 1) rotate(20.000000) translate(-38.000000, -53.156031) translate(18.500000, 47.656031)" stroke="#FFFFFF" strokeWidth="0.5" fill="#333333">
                            <path d="M20.2012533,10.6468597 C12.9019758,10.6468597 5.60269824,7.60956334 0.255553075,1.70853049 L1.52868288,0.493611961 C11.0347187,11.0807591 27.1610296,11.7749983 37.4309433,1.96887017 L38.6191978,3.2705686 C33.3569279,8.2170226 26.736653,10.6468597 20.2012533,10.6468597 Z" id="Shape"></path>
                        </g>
                    </g>
                    <rect id="Rectangle-path" fill="#9FA8B1" x="52" y="27" width="7.46670313" height="1.86670312"></rect>
                    <rect id="Rectangle-path" fill="#9FA8B1" x="61.3332969" y="27" width="1.86670313" height="1.86670312"></rect>
                    <rect id="Rectangle-path-Copy-8" fill="#9FA8B1" x="46" y="18" width="7.46670313" height="1.86670312"></rect>
                    <rect id="Rectangle-path-Copy-7" fill="#9FA8B1" x="55.3332969" y="18" width="1.86670313" height="1.86670312"></rect>
                    <g id="Group-5" transform="translate(6.000000, 39.000000) scale(-1, 1) translate(-6.000000, -39.000000) translate(0.000000, 38.000000)" fill="#9FA8B1">
                        <rect id="Rectangle-path-Copy-6" x="0" y="0" width="7.46670313" height="1.86670312"></rect>
                        <rect id="Rectangle-path-Copy-5" x="9.33329688" y="0" width="1.86670313" height="1.86670312"></rect>
                    </g>
                    <g id="Group-5-Copy" transform="translate(12.000000, 48.000000) scale(-1, 1) translate(-12.000000, -48.000000) translate(6.000000, 47.000000)" fill="#9FA8B1">
                        <rect id="Rectangle-path-Copy-6" x="0" y="0" width="7.46670313" height="1.86670312"></rect>
                        <rect id="Rectangle-path-Copy-5" x="9.33329688" y="0" width="1.86670313" height="1.86670312"></rect>
                    </g>
                </g>
            </g>
        </g>
    </g>
</svg>