<?xml version="1.0" encoding="UTF-8"?>
<svg width="91px" height="91px" viewBox="0 0 91 91" version="1.1" xmlns="http://www.w3.org/2000/svg" xmlns:xlink="http://www.w3.org/1999/xlink">
    <!-- Generator: Sketch 43.1 (39012) - http://www.bohemiancoding.com/sketch -->
    <title>Group 50</title>
    <desc>Created with Sketch.</desc>
    <defs></defs>
    <g id="Page-1" stroke="none" strokeWidth="1" fill="none" fillRule="evenodd">
        <g id="Artboard-Copy-6" transform="translate(-1007.000000, -2038.000000)">
            <g id="Group-50" transform="translate(1007.000000, 2038.000000)">
                <rect id="Rectangle-27-Copy" fill="#FFFFFF" x="0" y="0" width="91" height="91"></rect>
                <g id="003-shapes" transform="translate(20.000000, 20.000000)" fillRule="nonzero">
                    <rect id="Rectangle-path" fill="#FFFFFF" x="15.51875" y="16.5238474" width="20.9625" height="11.6875994"></rect>
                    <g id="Group" transform="translate(20.312500, 21.561606)" fill="#9FA8B1">
                        <rect id="Rectangle-path" x="0.08125" y="0.0403020668" width="1.625" height="1.61208267"></rect>
                        <rect id="Rectangle-path" x="4.875" y="0.0403020668" width="1.625" height="1.61208267"></rect>
                        <rect id="Rectangle-path" x="9.66875" y="0.0403020668" width="1.625" height="1.61208267"></rect>
                    </g>
                    <g id="Group" transform="translate(0.812500, 34.659777)" fill="#FFFFFF">
                        <polygon id="Shape" points="46.23125 0.0806041335 37.13125 0.0806041335 37.13125 16.1208267 50.375 16.1208267 50.375 4.19141494"></polygon>
                        <polygon id="Shape" points="27.70625 0.0806041335 18.525 0.0806041335 18.525 16.1208267 31.85 16.1208267 31.85 4.19141494"></polygon>
                        <polygon id="Shape" points="9.1 0.0806041335 0 0.0806041335 0 16.1208267 13.24375 16.1208267 13.24375 4.19141494"></polygon>
                    </g>
                    <g id="Group" transform="translate(3.859375, 42.201312)" fill="#9FA8B1">
                        <rect id="Rectangle-path" x="37.090625" y="0.0201510334" width="7.15" height="1.61208267"></rect>
                        <rect id="Rectangle-path" x="18.565625" y="0.0201510334" width="7.15" height="1.61208267"></rect>
                        <rect id="Rectangle-path" x="0.040625" y="0.0201510334" width="7.15" height="1.61208267"></rect>
                    </g>
                    <g id="Group" transform="translate(0.812500, 0.806041)" fill="#0021f5">
                        <path d="M45.58125,9.51128776 L45.58125,9.51128776 C42.9,9.51128776 40.7875,7.41558029 40.7875,4.75564388 L40.7875,4.75564388 C40.7875,2.09570747 42.9,0 45.58125,0 L45.58125,0 C48.2625,0 50.375,2.09570747 50.375,4.75564388 L50.375,4.75564388 C50.375,7.41558029 48.2625,9.51128776 45.58125,9.51128776 Z" id="Shape"></path>
                        <path d="M25.1875,9.51128776 L25.1875,9.51128776 C22.50625,9.51128776 20.39375,7.41558029 20.39375,4.75564388 L20.39375,4.75564388 C20.39375,2.09570747 22.50625,0 25.1875,0 L25.1875,0 C27.86875,0 29.98125,2.09570747 29.98125,4.75564388 L29.98125,4.75564388 C29.98125,7.41558029 27.86875,9.51128776 25.1875,9.51128776 Z" id="Shape"></path>
                        <path d="M4.79375,9.51128776 L4.79375,9.51128776 C2.1125,9.51128776 0,7.41558029 0,4.75564388 L0,4.75564388 C0,2.09570747 2.1125,0 4.79375,0 L4.79375,0 C7.475,0 9.5875,2.09570747 9.5875,4.75564388 L9.5875,4.75564388 C9.5875,7.41558029 7.475,9.51128776 4.79375,9.51128776 Z" id="Shape"></path>
                    </g>
                    <path d="M47.20625,33.9343402 L47.20625,24.9872814 L37.29375,24.9872814 L37.29375,19.7480127 L47.20625,19.7480127 L47.20625,11.0427663 C49.8875,10.6397456 52,8.30222576 52,5.56168521 C52,2.49872814 49.48125,0 46.39375,0 C43.30625,0 40.7875,2.49872814 40.7875,5.56168521 C40.7875,8.38282989 42.9,10.6397456 45.58125,11.0427663 L45.58125,18.13593 L37.29375,18.13593 L37.29375,15.717806 L26.8125,15.717806 L26.8125,11.0427663 C29.49375,10.6397456 31.60625,8.30222576 31.60625,5.56168521 C31.60625,2.49872814 29.0875,0 26,0 C22.9125,0 20.39375,2.49872814 20.39375,5.56168521 C20.39375,8.38282989 22.50625,10.6397456 25.1875,11.0427663 L25.1875,15.717806 L14.70625,15.717806 L14.70625,18.13593 L6.41875,18.13593 L6.41875,11.0427663 C9.1,10.6397456 11.2125,8.30222576 11.2125,5.56168521 C11.2125,2.49872814 8.69375,0 5.60625,0 C2.51875,0 0,2.49872814 0,5.56168521 C0,8.38282989 2.1125,10.6397456 4.79375,11.0427663 L4.79375,19.7480127 L14.70625,19.7480127 L14.70625,24.9872814 L4.79375,24.9872814 L4.79375,33.9343402 L0,33.9343402 L0,51.5866455 L14.86875,51.5866455 L14.86875,38.5287758 L10.2375,33.9343402 L6.41875,33.9343402 L6.41875,26.5993641 L14.70625,26.5993641 L14.70625,29.0174881 L25.1875,29.0174881 L25.1875,33.9343402 L18.525,33.9343402 L18.525,51.5866455 L33.39375,51.5866455 L33.39375,38.5287758 L28.7625,33.9343402 L26.8125,33.9343402 L26.8125,29.0174881 L37.29375,29.0174881 L37.29375,26.5993641 L45.58125,26.5993641 L45.58125,33.9343402 L37.13125,33.9343402 L37.13125,51.5866455 L52,51.5866455 L52,38.5287758 L47.36875,33.9343402 L47.20625,33.9343402 L47.20625,33.9343402 Z M42.4125,5.56168521 C42.4125,3.38537361 44.2,1.61208267 46.39375,1.61208267 C48.5875,1.61208267 50.375,3.38537361 50.375,5.56168521 C50.375,7.73799682 48.5875,9.51128776 46.39375,9.51128776 C44.2,9.51128776 42.4125,7.73799682 42.4125,5.56168521 Z M22.01875,5.56168521 C22.01875,3.38537361 23.80625,1.61208267 26,1.61208267 C28.19375,1.61208267 29.98125,3.38537361 29.98125,5.56168521 C29.98125,7.73799682 28.19375,9.51128776 26,9.51128776 C23.80625,9.51128776 22.01875,7.73799682 22.01875,5.56168521 Z M1.625,5.56168521 C1.625,3.38537361 3.4125,1.61208267 5.60625,1.61208267 C7.8,1.61208267 9.5875,3.38537361 9.5875,5.56168521 C9.5875,7.73799682 7.8,9.51128776 5.60625,9.51128776 C3.4125,9.51128776 1.625,7.73799682 1.625,5.56168521 Z M13.24375,39.1736089 L13.24375,49.9745628 L1.625,49.9745628 L1.625,35.5464229 L9.5875,35.5464229 L13.24375,39.1736089 Z M31.85,39.1736089 L31.85,49.9745628 L20.15,49.9745628 L20.15,35.5464229 L28.1125,35.5464229 L31.85,39.1736089 Z M35.66875,27.4054054 L16.33125,27.4054054 L16.33125,17.3298887 L35.66875,17.3298887 L35.66875,27.4054054 L35.66875,27.4054054 Z M50.375,49.9745628 L38.75625,49.9745628 L38.75625,35.5464229 L46.71875,35.5464229 L50.375,39.1736089 L50.375,49.9745628 Z" id="Shape" fill="#333333"></path>
                </g>
            </g>
        </g>
    </g>
</svg>