<?xml version="1.0" encoding="UTF-8"?>
<svg width="91px" height="91px" viewBox="0 0 91 91" version="1.1" xmlns="http://www.w3.org/2000/svg" xmlns:xlink="http://www.w3.org/1999/xlink">
    <!-- Generator: Sketch 43.1 (39012) - http://www.bohemiancoding.com/sketch -->
    <title>Group 48</title>
    <desc>Created with Sketch.</desc>
    <defs></defs>
    <g id="Page-1" stroke="none" strokeWidth="1" fill="none" fillRule="evenodd">
        <g id="Artboard-Copy-6" transform="translate(-343.000000, -2039.000000)">
            <g id="Group-48" transform="translate(343.000000, 2039.000000)">
                <rect id="Rectangle-27" fill="#FFFFFF" x="0" y="0" width="91" height="91"></rect>
                <g id="002-decentralized" transform="translate(18.000000, 18.000000)" fillRule="nonzero">
                    <path d="M10.2667031,0 L0.933296875,0 C0.418140625,0 0,0.418140625 0,0.933296875 L0,8.4 C0,8.91515625 0.418140625,9.33329687 0.933296875,9.33329687 L4.66659375,9.33329687 L4.66659375,11.2 L0.933296875,11.2 L0.933296875,13.0667031 L10.2665937,13.0667031 L10.2665937,11.2 L6.53329687,11.2 L6.53329687,9.33329687 L10.2665937,9.33329687 C10.78175,9.33329687 11.1998906,8.91515625 11.1998906,8.4 L11.1998906,0.933296875 C11.2,0.418140625 10.7818594,0 10.2667031,0 Z M9.33329687,7.46670312 L1.86670312,7.46670312 L1.86670312,1.86670312 L9.33340625,1.86670312 L9.33340625,7.46670312 L9.33329687,7.46670312 Z" id="Shape" fill="#333333"></path>
                    <path d="M55.0667031,0 L45.7334062,0 C45.21825,0 44.8001094,0.418140625 44.8001094,0.933296875 L44.8001094,8.4 C44.8001094,8.91515625 45.21825,9.33329687 45.7334062,9.33329687 L49.4667031,9.33329687 L49.4667031,11.2 L45.7334062,11.2 L45.7334062,13.0667031 L55.0667031,13.0667031 L55.0667031,11.2 L51.3334062,11.2 L51.3334062,9.33329687 L55.0667031,9.33329687 C55.5818594,9.33329687 56,8.91515625 56,8.4 L56,0.933296875 C56,0.418140625 55.5818594,0 55.0667031,0 Z M54.1332969,7.46670312 L46.6665938,7.46670312 L46.6665938,1.86670312 L54.1332969,1.86670312 L54.1332969,7.46670312 Z" id="Shape" fill="#333333"></path>
                    <path d="M10.2667031,42.9332969 L0.933296875,42.9332969 C0.418140625,42.9332969 0,43.3514375 0,43.8665937 L0,51.3332969 C0,51.8484531 0.418140625,52.2665937 0.933296875,52.2665937 L4.66659375,52.2665937 L4.66659375,54.1332969 L0,54.1332969 L0,56 L11.2,56 L11.2,54.1332969 L6.53329687,54.1332969 L6.53329687,52.2665937 L10.2665937,52.2665937 C10.78175,52.2665937 11.1998906,51.8484531 11.1998906,51.3332969 L11.1998906,43.8665937 C11.2,43.3514375 10.7818594,42.9332969 10.2667031,42.9332969 Z M9.33329687,50.4 L1.86670312,50.4 L1.86670312,44.8 L9.33340625,44.8 L9.33340625,50.4 L9.33329687,50.4 Z" id="Shape" fill="#333333"></path>
                    <path d="M55.0667031,42.9332969 L45.7334062,42.9332969 C45.21825,42.9332969 44.8001094,43.3514375 44.8001094,43.8665937 L44.8001094,51.3332969 C44.8001094,51.8484531 45.21825,52.2665937 45.7334062,52.2665937 L49.4667031,52.2665937 L49.4667031,54.1332969 L44.8,54.1332969 L44.8,56 L56,56 L56,54.1332969 L51.3332969,54.1332969 L51.3332969,52.2665937 L55.0665937,52.2665937 C55.58175,52.2665937 55.9998906,51.8484531 55.9998906,51.3332969 L55.9998906,43.8665937 C56,43.3514375 55.5818594,42.9332969 55.0667031,42.9332969 Z M54.1332969,50.4 L46.6665937,50.4 L46.6665937,44.8 L54.1332969,44.8 L54.1332969,50.4 Z" id="Shape" fill="#333333"></path>
                    <g id="Group" fill="#9FA8B1">
                        <rect id="Rectangle-path" x="27.0667031" y="3.73329687" width="1.86670312" height="7.46670313"></rect>
                        <rect id="Rectangle-path" x="27.0667031" y="0" width="1.86670312" height="1.86670312"></rect>
                        <rect id="Rectangle-path" x="27.0667031" y="44.8" width="1.86670312" height="7.46670313"></rect>
                        <rect id="Rectangle-path" x="27.0667031" y="54.1332969" width="1.86670312" height="1.86670313"></rect>
                        <rect id="Rectangle-path" x="44.8" y="27.0667031" width="7.46670313" height="1.86670312"></rect>
                        <rect id="Rectangle-path" x="54.1332969" y="27.0667031" width="1.86670313" height="1.86670312"></rect>
                        <rect id="Rectangle-path" x="3.73329687" y="27.0667031" width="7.46670312" height="1.86670312"></rect>
                        <rect id="Rectangle-path" x="0" y="27.0667031" width="1.86670312" height="1.86670312"></rect>
                    </g>
                    <polygon id="Fill-8" fill="#0021f5" points="24.0212576 18.4680851 18.4501358 24.0472114 18.4501358 31.9375413 24.0212576 37.5168676 31.9002672 37.5168676 37.4715886 31.9375413 37.4715886 24.0472114 31.9002672 18.4680851"></polygon>
                </g>
            </g>
        </g>
    </g>
</svg>