<?xml version="1.0" encoding="UTF-8"?>
<svg width="166px" height="118px" viewBox="0 0 166 118" version="1.1" xmlns="http://www.w3.org/2000/svg" xmlns:xlink="http://www.w3.org/1999/xlink">
    <!-- Generator: Sketch 43.1 (39012) - http://www.bohemiancoding.com/sketch -->
    <title>02</title>
    <desc>Created with Sketch.</desc>
    <defs></defs>
    <g id="Page-1" stroke="none" strokeWidth="1" fill="none" fillRule="evenodd">
        <g id="Artboard-Copy-6" transform="translate(-540.000000, -2142.000000)" fill="#F5F8FB">
            <path d="M612.217498,2209.48438 C612.217498,2226.41154 609.326902,2238.98954 603.545623,2247.21875 C597.764344,2255.44796 588.727976,2259.5625 576.436248,2259.5625 C564.300771,2259.5625 555.316486,2255.5391 549.483123,2247.49219 C543.649761,2239.44527 540.628958,2227.42716 540.420623,2211.4375 L540.420623,2192.14062 C540.420623,2175.42179 543.311219,2163.00004 549.092498,2154.875 C554.873777,2146.74996 563.936186,2142.6875 576.279998,2142.6875 C588.519643,2142.6875 597.529969,2146.60673 603.311248,2154.44531 C609.092527,2162.28389 612.061247,2174.38013 612.217498,2190.73438 L612.217498,2209.48438 Z M597.764373,2189.71875 C597.764373,2177.47911 596.04564,2168.55992 592.608123,2162.96094 C589.170606,2157.36195 583.727952,2154.5625 576.279998,2154.5625 C568.884128,2154.5625 563.493557,2157.34893 560.108123,2162.92188 C556.72269,2168.49482 554.977915,2177.06244 554.873748,2188.625 L554.873748,2211.75 C554.873748,2224.04173 556.657585,2233.11716 560.225311,2238.97656 C563.793037,2244.83597 569.196629,2247.76562 576.436248,2247.76562 C583.571701,2247.76562 588.871127,2245.00524 592.334686,2239.48438 C595.798245,2233.96351 597.608122,2225.26568 597.764373,2213.39062 L597.764373,2189.71875 Z M705.654373,2258 L631.123123,2258 L631.123123,2247.60938 L670.498123,2203.85938 C676.331486,2197.24476 680.354883,2191.86721 682.568436,2187.72656 C684.781988,2183.58592 685.888748,2179.30211 685.888748,2174.875 C685.888748,2168.93747 684.091891,2164.06773 680.498123,2160.26562 C676.904355,2156.46352 672.112736,2154.5625 666.123123,2154.5625 C658.935587,2154.5625 653.349706,2156.60675 649.365311,2160.69531 C645.380916,2164.78387 643.388748,2170.47392 643.388748,2177.76562 L628.935623,2177.76562 C628.935623,2167.29682 632.307985,2158.83337 639.052811,2152.375 C645.797636,2145.91663 654.820983,2142.6875 666.123123,2142.6875 C676.696093,2142.6875 685.055384,2145.46091 691.201248,2151.00781 C697.347112,2156.55472 700.419998,2163.93745 700.419998,2173.15625 C700.419998,2184.35422 693.284653,2197.68742 679.013748,2213.15625 L648.544998,2246.20312 L705.654373,2246.20312 L705.654373,2258 Z" id="02"></path>
        </g>
    </g>
</svg>