<?xml version="1.0" encoding="UTF-8"?>
<svg width="139px" height="118px" viewBox="0 0 139 118" version="1.1" xmlns="http://www.w3.org/2000/svg" xmlns:xlink="http://www.w3.org/1999/xlink">
    <!-- Generator: Sketch 43.1 (39012) - http://www.bohemiancoding.com/sketch -->
    <title>01</title>
    <desc>Created with Sketch.</desc>
    <defs></defs>
    <g id="Page-1" stroke="none" strokeWidth="1" fill="none" fillRule="evenodd">
        <g id="Artboard-Copy-6" transform="translate(-211.000000, -2142.000000)" fill="#F5F8FB">
            <path d="M283.217498,2209.48438 C283.217498,2226.41154 280.326902,2238.98954 274.545623,2247.21875 C268.764344,2255.44796 259.727976,2259.5625 247.436248,2259.5625 C235.300771,2259.5625 226.316486,2255.5391 220.483123,2247.49219 C214.649761,2239.44527 211.628958,2227.42716 211.420623,2211.4375 L211.420623,2192.14062 C211.420623,2175.42179 214.311219,2163.00004 220.092498,2154.875 C225.873777,2146.74996 234.936186,2142.6875 247.279998,2142.6875 C259.519643,2142.6875 268.529969,2146.60673 274.311248,2154.44531 C280.092527,2162.28389 283.061247,2174.38013 283.217498,2190.73438 L283.217498,2209.48438 Z M268.764373,2189.71875 C268.764373,2177.47911 267.04564,2168.55992 263.608123,2162.96094 C260.170606,2157.36195 254.727952,2154.5625 247.279998,2154.5625 C239.884128,2154.5625 234.493557,2157.34893 231.108123,2162.92188 C227.72269,2168.49482 225.977915,2177.06244 225.873748,2188.625 L225.873748,2211.75 C225.873748,2224.04173 227.657585,2233.11716 231.225311,2238.97656 C234.793037,2244.83597 240.196629,2247.76562 247.436248,2247.76562 C254.571701,2247.76562 259.871127,2245.00524 263.334686,2239.48438 C266.798245,2233.96351 268.608122,2225.26568 268.764373,2213.39062 L268.764373,2189.71875 Z M349.623123,2258 L335.091873,2258 L335.091873,2161.67188 L305.951248,2172.375 L305.951248,2159.25 L347.357498,2143.70312 L349.623123,2143.70312 L349.623123,2258 Z" id="01"></path>
        </g>
    </g>
</svg>