<?xml version="1.0" encoding="UTF-8"?>
<svg width="162px" height="118px" viewBox="0 0 162 118" version="1.1" xmlns="http://www.w3.org/2000/svg" xmlns:xlink="http://www.w3.org/1999/xlink">
    <!-- Generator: Sketch 43.1 (39012) - http://www.bohemiancoding.com/sketch -->
    <title>03</title>
    <desc>Created with Sketch.</desc>
    <defs></defs>
    <g id="Page-1" stroke="none" strokeWidth="1" fill="none" fillRule="evenodd">
        <g id="Artboard-Copy-6" transform="translate(-886.000000, -2142.000000)" fill="#F5F8FB">
            <path d="M958.217498,2209.48438 C958.217498,2226.41154 955.326902,2238.98954 949.545623,2247.21875 C943.764344,2255.44796 934.727976,2259.5625 922.436248,2259.5625 C910.300771,2259.5625 901.316486,2255.5391 895.483123,2247.49219 C889.649761,2239.44527 886.628958,2227.42716 886.420623,2211.4375 L886.420623,2192.14062 C886.420623,2175.42179 889.311219,2163.00004 895.092498,2154.875 C900.873777,2146.74996 909.936186,2142.6875 922.279998,2142.6875 C934.519643,2142.6875 943.529969,2146.60673 949.311248,2154.44531 C955.092527,2162.28389 958.061247,2174.38013 958.217498,2190.73438 L958.217498,2209.48438 Z M943.764373,2189.71875 C943.764373,2177.47911 942.04564,2168.55992 938.608123,2162.96094 C935.170606,2157.36195 929.727952,2154.5625 922.279998,2154.5625 C914.884128,2154.5625 909.493557,2157.34893 906.108123,2162.92188 C902.72269,2168.49482 900.977915,2177.06244 900.873748,2188.625 L900.873748,2211.75 C900.873748,2224.04173 902.657585,2233.11716 906.225311,2238.97656 C909.793037,2244.83597 915.196629,2247.76562 922.436248,2247.76562 C929.571701,2247.76562 934.871127,2245.00524 938.334686,2239.48438 C941.798245,2233.96351 943.608122,2225.26568 943.764373,2213.39062 L943.764373,2189.71875 Z M998.138748,2194.09375 L1008.99812,2194.09375 C1015.82107,2193.98958 1021.1856,2192.19273 1025.09187,2188.70312 C1028.99814,2185.21352 1030.95125,2180.50003 1030.95125,2174.5625 C1030.95125,2161.2291 1024.31069,2154.5625 1011.02937,2154.5625 C1004.77934,2154.5625 999.792413,2156.34634 996.068436,2159.91406 C992.344459,2163.48179 990.482498,2168.2083 990.482498,2174.09375 L976.029373,2174.09375 C976.029373,2165.08329 979.323611,2157.59638 985.912186,2151.63281 C992.50076,2145.66924 1000.87307,2142.6875 1011.02937,2142.6875 C1021.75859,2142.6875 1030.16997,2145.52601 1036.26375,2151.20312 C1042.35753,2156.88024 1045.40437,2164.77078 1045.40437,2174.875 C1045.40437,2179.82294 1043.80283,2184.61456 1040.59969,2189.25 C1037.39654,2193.88544 1033.03461,2197.34895 1027.51375,2199.64062 C1033.76378,2201.6198 1038.59446,2204.90102 1042.00594,2209.48438 C1045.41741,2214.06773 1047.12312,2219.66663 1047.12312,2226.28125 C1047.12312,2236.48963 1043.78982,2244.58851 1037.12312,2250.57812 C1030.45642,2256.56774 1021.78463,2259.5625 1011.1075,2259.5625 C1000.43036,2259.5625 991.745552,2256.6719 985.052811,2250.89062 C978.360069,2245.10935 975.013748,2237.47921 975.013748,2228 L989.544998,2228 C989.544998,2233.98961 991.498104,2238.78123 995.404373,2242.375 C999.310643,2245.96877 1004.54497,2247.76562 1011.1075,2247.76562 C1018.0867,2247.76562 1023.42519,2245.94273 1027.12312,2242.29688 C1030.82106,2238.65102 1032.67,2233.4167 1032.67,2226.59375 C1032.67,2219.97913 1030.63877,2214.90106 1026.57625,2211.35938 C1022.51373,2207.81769 1016.65441,2205.99479 1008.99812,2205.89062 L998.138748,2205.89062 L998.138748,2194.09375 Z" id="03"></path>
        </g>
    </g>
</svg>