<?xml version="1.0" encoding="utf-8"?>
<!-- Generator: Adobe Illustrator 23.0.1, SVG Export Plug-In . SVG Version: 6.00 Build 0)  -->
<svg version="1.1" id="Layer_1" xmlns="http://www.w3.org/2000/svg" xmlns:xlink="http://www.w3.org/1999/xlink" x="0px" y="0px"
	 viewBox="0 0 162.5 39.6" style="enable-background:new 0 0 162.5 39.6;" xml:space="preserve">
<style type="text/css">
	.st0{fill:#1729F6;}
</style>
<g>
	<g>
		<path d="M12.8,6.9H8.8v9.3H5.5V6.9H1.4v-3h11.4V6.9z"/>
		<path d="M30.8,16.2h-3.3v-4.8h-5v4.8h-3.3V3.9h3.3v4.5h5V3.9h3.3V16.2z"/>
		<path d="M46.2,16.2h-8.3V3.9H46v2.5h-4.9v2.3h4.6v2.5h-4.6v2.6h5V16.2z"/>
		<path d="M81.8,16.1h-4.1l-4.2-5.8v5.8h-3.3V3.8h3.3v5.5l4-5.5h3.6L77,9.6L81.8,16.1z"/>
		<path d="M90.8,16.1h-3.3V3.8h3.3V16.1z"/>
		<path d="M9.3,34.1H4.7v5H1.4V26.8h7.9v2.5H4.7v2.4h4.6V34.1z"/>
		<path d="M27.7,32.9c0,1.1-0.2,2.2-0.7,3.2c-0.5,1-1.2,1.7-2.1,2.3c-0.9,0.6-2.1,0.9-3.4,0.9c-1.4,0-2.5-0.3-3.5-0.9
			C17,37.8,16.3,37,15.8,36c-0.5-1-0.7-2-0.7-3.1c0-1.1,0.2-2.1,0.7-3.1s1.2-1.7,2.1-2.3c1-0.6,2.1-0.9,3.5-0.9c1,0,1.9,0.2,2.7,0.5
			s1.5,0.8,2,1.4c0.5,0.6,0.9,1.2,1.2,2C27.5,31.3,27.7,32.1,27.7,32.9z M24.3,32.9c0-0.5-0.1-0.9-0.2-1.3c-0.1-0.4-0.3-0.7-0.6-1
			c-0.2-0.3-0.5-0.5-0.9-0.7s-0.8-0.2-1.2-0.2c-0.9,0-1.6,0.3-2.1,0.9c-0.5,0.6-0.8,1.3-0.8,2.3c0,0.9,0.3,1.7,0.8,2.3
			c0.5,0.6,1.2,0.9,2.1,0.9c0.6,0,1.1-0.1,1.6-0.4s0.8-0.6,1-1.1C24.2,34.1,24.3,33.6,24.3,32.9z"/>
		<path d="M45.6,33.6c0,1.1-0.2,2-0.5,2.7c-0.4,0.7-0.8,1.3-1.4,1.8c-0.6,0.4-1.2,0.7-1.9,0.9s-1.3,0.3-2,0.3
			c-0.9,0-1.8-0.2-2.7-0.5s-1.6-1-2.2-1.8c-0.6-0.9-0.9-2-0.9-3.3v-6.8h3.3v5.8c0,0.8,0.1,1.5,0.3,2c0.2,0.5,0.5,0.9,0.9,1.2
			s0.8,0.4,1.3,0.4c0.5,0,0.9-0.1,1.3-0.4s0.7-0.6,0.9-1.2c0.2-0.5,0.3-1.2,0.3-2v-5.9h3.3V33.6z"/>
		<path d="M64.5,39.1h-3l-5.7-6.9v6.9h-3.3V26.8h3l5.7,6.8v-6.8h3.3V39.1z"/>
		<path d="M82.9,33.2c0,1.3-0.2,2.3-0.6,3c-0.4,0.8-0.9,1.4-1.5,1.9c-0.8,0.7-1.9,1-3.3,1h-6V26.8h4.6c0.7,0,1.3,0,1.8,0.1
			c0.5,0.1,0.9,0.2,1.3,0.3c0.4,0.1,0.7,0.3,1,0.5s0.5,0.4,0.7,0.6c0.4,0.3,0.7,0.8,1,1.2c0.3,0.5,0.5,1,0.7,1.6
			C82.8,31.8,82.9,32.4,82.9,33.2z M79.5,33c0-1-0.2-1.8-0.5-2.3c-0.3-0.6-0.8-0.9-1.2-1.1s-1-0.3-1.5-0.3h-1.4v7.3h1.4
			c0.9,0,1.6-0.2,2.3-0.7S79.5,34.4,79.5,33z"/>
		<path d="M100.7,39.1h-3.4l-0.9-2.5h-4.8l-0.9,2.5h-3.4l4.9-12.3h3.7L100.7,39.1z M95.6,34.5L94,30l-1.6,4.5H95.6z"/>
		<path d="M115.4,29.8h-4.1v9.3h-3.3v-9.3H104v-3h11.4V29.8z"/>
		<path d="M125,39.1h-3.3V26.8h3.3V39.1z"/>
		<path d="M143.9,32.9c0,1.1-0.2,2.2-0.7,3.2c-0.5,1-1.2,1.7-2.1,2.3c-0.9,0.6-2.1,0.9-3.4,0.9c-1.4,0-2.5-0.3-3.5-0.9
			c-0.9-0.6-1.7-1.4-2.1-2.3c-0.5-1-0.7-2-0.7-3.1c0-1.1,0.2-2.1,0.7-3.1c0.5-1,1.2-1.7,2.1-2.3c1-0.6,2.1-0.9,3.5-0.9
			c1,0,1.9,0.2,2.7,0.5c0.8,0.3,1.5,0.8,2,1.4c0.5,0.6,0.9,1.2,1.2,2C143.8,31.3,143.9,32.1,143.9,32.9z M140.5,32.9
			c0-0.5-0.1-0.9-0.2-1.3c-0.1-0.4-0.3-0.7-0.6-1c-0.2-0.3-0.5-0.5-0.9-0.7s-0.8-0.2-1.2-0.2c-0.9,0-1.6,0.3-2.1,0.9
			c-0.5,0.6-0.8,1.3-0.8,2.3c0,0.9,0.3,1.7,0.8,2.3c0.5,0.6,1.2,0.9,2.1,0.9c0.6,0,1.1-0.1,1.6-0.4s0.8-0.6,1-1.1
			C140.4,34.1,140.5,33.6,140.5,32.9z"/>
		<path d="M162.1,39.1h-3l-5.7-6.9v6.9h-3.3V26.8h3l5.7,6.8v-6.8h3.3V39.1z"/>
	</g>
</g>
<path class="st0" d="M102.7,0.4L102.7,0.4c-2.1,0-3.8,1.7-3.8,3.8v3.8h3.8c2.1,0,3.8-1.7,3.8-3.8v0C106.5,2.1,104.8,0.4,102.7,0.4z"
	/>
</svg>
